<svg width="176" height="44" viewBox="0 0 176 44" fill="none" xmlns="http://www.w3.org/2000/svg">
<g clip-path="url(#clip0_29_25)">
<rect width="176" height="44" fill="white"/>
<path d="M69.6415 21.76L69.9295 18.664H78.2575L78.5215 21.76H69.6415ZM74.0335 14.368L71.6815 19.792L71.8735 20.68L69.7855 25H65.2015L74.0335 7.144L82.8895 25H78.2815L76.2655 20.848L76.4095 19.816L74.0335 14.368ZM85.85 8.2H89.978V25H85.85V8.2ZM97.4255 25V21.664H105.897V25H97.4255ZM97.4255 11.536V8.2H105.897V11.536H97.4255ZM97.4255 17.8V14.536H105.417V17.8H97.4255ZM94.7375 8.2H98.6255V25H94.7375V8.2ZM113.854 16.6C113.854 17.624 114.086 18.512 114.55 19.264C115.014 20 115.622 20.56 116.374 20.944C117.142 21.328 117.982 21.52 118.894 21.52C119.694 21.52 120.398 21.416 121.006 21.208C121.614 21 122.158 20.728 122.638 20.392C123.118 20.056 123.542 19.696 123.91 19.312V23.68C123.238 24.208 122.502 24.624 121.702 24.928C120.902 25.232 119.886 25.384 118.654 25.384C117.31 25.384 116.07 25.176 114.934 24.76C113.798 24.344 112.822 23.744 112.006 22.96C111.19 22.176 110.558 21.248 110.11 20.176C109.662 19.104 109.438 17.912 109.438 16.6C109.438 15.288 109.662 14.096 110.11 13.024C110.558 11.952 111.19 11.024 112.006 10.24C112.822 9.456 113.798 8.856 114.934 8.44C116.07 8.024 117.31 7.816 118.654 7.816C119.886 7.816 120.902 7.968 121.702 8.272C122.502 8.576 123.238 8.992 123.91 9.52V13.888C123.542 13.504 123.118 13.144 122.638 12.808C122.158 12.456 121.614 12.184 121.006 11.992C120.398 11.784 119.694 11.68 118.894 11.68C117.982 11.68 117.142 11.872 116.374 12.256C115.622 12.64 115.014 13.2 114.55 13.936C114.086 14.672 113.854 15.56 113.854 16.6ZM128.427 8.2H132.483V25H128.427V8.2ZM130.971 11.536V8.2H134.259C135.683 8.2 136.875 8.424 137.835 8.872C138.811 9.304 139.547 9.928 140.043 10.744C140.539 11.56 140.787 12.544 140.787 13.696C140.787 14.816 140.539 15.792 140.043 16.624C139.547 17.44 138.811 18.072 137.835 18.52C136.875 18.952 135.683 19.168 134.259 19.168H130.971V15.832H134.259C135.075 15.832 135.715 15.648 136.179 15.28C136.643 14.912 136.875 14.384 136.875 13.696C136.875 12.992 136.643 12.456 136.179 12.088C135.715 11.72 135.075 11.536 134.259 11.536H130.971ZM144.58 8.2H148.636V21.52H155.38V25H144.58V8.2Z" fill="url(#paint0_linear_29_25)"/>
<path d="M57.3203 34.5771V38H56.1582V34.5771L54.0098 30.6025H55.2402L56.7393 33.4004L58.2383 30.6025H59.4688L57.3203 34.5771ZM60.6406 33.2686C60.6081 33.4606 60.5853 33.6413 60.5723 33.8105C60.5592 33.9798 60.5527 34.154 60.5527 34.333C60.5527 34.5088 60.5592 34.6829 60.5723 34.8555C60.5853 35.028 60.6081 35.2103 60.6406 35.4023C60.6764 35.5944 60.7204 35.7718 60.7725 35.9346C60.8245 36.0973 60.8945 36.2552 60.9824 36.4082C61.0736 36.5579 61.1745 36.6865 61.2852 36.7939C61.5358 37.0283 61.8516 37.1455 62.2324 37.1455C63.2904 37.1455 63.8193 36.2048 63.8193 34.3232C63.8193 32.79 63.4613 31.8656 62.7451 31.5498C62.5889 31.4814 62.4147 31.4473 62.2227 31.4473C62.0339 31.4473 61.8581 31.4814 61.6953 31.5498C61.5358 31.6182 61.3991 31.7093 61.2852 31.8232C61.1745 31.9339 61.0736 32.069 60.9824 32.2285C60.8945 32.388 60.8245 32.5524 60.7725 32.7217C60.7204 32.891 60.6764 33.0732 60.6406 33.2686ZM59.4346 35.0654C59.402 34.818 59.3857 34.5723 59.3857 34.3281C59.3857 34.084 59.4004 33.8382 59.4297 33.5908C59.459 33.3434 59.5078 33.0928 59.5762 32.8389C59.6445 32.5817 59.7292 32.3392 59.8301 32.1113C59.931 31.8835 60.0579 31.6686 60.2109 31.4668C60.3672 31.2617 60.5413 31.0859 60.7334 30.9395C61.1468 30.6237 61.6497 30.4658 62.2422 30.4658C63.056 30.4658 63.707 30.8011 64.1953 31.4717C64.7227 32.2008 64.9863 33.153 64.9863 34.3281C64.9863 35.526 64.7324 36.4701 64.2246 37.1602C63.7493 37.8047 63.0885 38.127 62.2422 38.127C61.4382 38.127 60.779 37.8031 60.2646 37.1553C59.8285 36.6084 59.5518 35.9118 59.4346 35.0654ZM65.8994 35.8125V30.6025H67.0664V35.5342C67.0664 36.3577 67.3317 36.8688 67.8623 37.0674C67.999 37.1195 68.152 37.1455 68.3213 37.1455C68.4906 37.1455 68.6436 37.1227 68.7803 37.0771C68.917 37.0316 69.0277 36.9746 69.1123 36.9062C69.1969 36.8379 69.2702 36.7516 69.332 36.6475C69.3939 36.54 69.4395 36.4424 69.4688 36.3545C69.498 36.2666 69.5225 36.1624 69.542 36.042C69.5615 35.8857 69.5713 35.7165 69.5713 35.5342V30.6025H70.7627V35.8125C70.7627 36.5579 70.5169 37.1488 70.0254 37.585C69.6185 37.9463 69.0521 38.127 68.3262 38.127C67.2227 38.127 66.4902 37.7087 66.1289 36.8721C65.9759 36.527 65.8994 36.1738 65.8994 35.8125ZM73.0918 33.8057H74.3271C74.6689 33.8057 74.9538 33.7129 75.1816 33.5273C75.4225 33.3288 75.543 33.0244 75.543 32.6143C75.543 31.9274 74.9977 31.584 73.9072 31.584H73.0918V33.8057ZM71.9248 38V30.6025H74.4102C75.5527 30.6025 76.2754 31.0111 76.5781 31.8281C76.666 32.0658 76.71 32.3115 76.71 32.5654C76.71 32.8193 76.6807 33.0505 76.6221 33.2588C76.5667 33.4671 76.4837 33.6608 76.373 33.8398C76.1289 34.2305 75.7692 34.4762 75.2939 34.5771L76.6611 38H75.4648L74.1855 34.792H73.0918V38H71.9248ZM83.5068 32.5557C83.5068 31.9079 82.9632 31.584 81.876 31.584H81.0703V33.8057H81.876C82.3773 33.8057 82.7744 33.6982 83.0674 33.4834C83.3604 33.2653 83.5068 32.9561 83.5068 32.5557ZM79.9033 38V30.6025H82.4277C83.3457 30.6025 83.9886 30.8662 84.3564 31.3936C84.568 31.6995 84.6738 32.0723 84.6738 32.5117C84.6738 33.293 84.4362 33.8984 83.9609 34.3281C83.6126 34.6374 83.1536 34.792 82.584 34.792H81.0703V38H79.9033ZM85.5283 38V30.6025H89.7617V31.584H86.6953V33.6299H88.8291V34.6162H86.6953V36.9502H89.9473V38H85.5283ZM91.9688 33.8057H93.2041C93.5459 33.8057 93.8307 33.7129 94.0586 33.5273C94.2995 33.3288 94.4199 33.0244 94.4199 32.6143C94.4199 31.9274 93.8747 31.584 92.7842 31.584H91.9688V33.8057ZM90.8018 38V30.6025H93.2871C94.4297 30.6025 95.1523 31.0111 95.4551 31.8281C95.543 32.0658 95.5869 32.3115 95.5869 32.5654C95.5869 32.8193 95.5576 33.0505 95.499 33.2588C95.4437 33.4671 95.3607 33.6608 95.25 33.8398C95.0059 34.2305 94.6462 34.4762 94.1709 34.5771L95.5381 38H94.3418L93.0625 34.792H91.9688V38H90.8018ZM96.2803 38V30.6025H100.514V31.584H97.4473V33.6299H99.5811V34.6162H97.4473V38H96.2803ZM101.368 38V30.6025H105.602V31.584H102.535V33.6299H104.669V34.6162H102.535V36.9502H105.787V38H101.368ZM106.222 35.2168C106.17 34.9108 106.144 34.6016 106.144 34.2891C106.144 33.9766 106.168 33.6689 106.217 33.3662C106.266 33.0635 106.337 32.7689 106.432 32.4824C106.529 32.1927 106.655 31.9274 106.808 31.6865C106.964 31.4424 107.141 31.2292 107.34 31.0469C107.763 30.6595 108.289 30.4658 108.917 30.4658C109.715 30.4658 110.344 30.8646 110.807 31.6621C111.031 32.0495 111.183 32.4482 111.261 32.8584V32.8633L110.245 33.1367C110.193 32.7884 110.131 32.5345 110.06 32.375C109.988 32.2122 109.916 32.0771 109.845 31.9697C109.773 31.859 109.695 31.7679 109.61 31.6963C109.409 31.5303 109.179 31.4473 108.922 31.4473C108.668 31.4473 108.45 31.5059 108.268 31.623C108.085 31.737 107.936 31.8883 107.818 32.0771C107.701 32.2627 107.604 32.4808 107.525 32.7314C107.382 33.1937 107.311 33.7145 107.311 34.2939C107.311 35.8304 107.675 36.7484 108.404 37.0479C108.561 37.113 108.727 37.1455 108.902 37.1455C109.078 37.1455 109.234 37.1227 109.371 37.0771C109.511 37.0316 109.628 36.973 109.723 36.9014C109.817 36.8265 109.9 36.7386 109.972 36.6377C110.047 36.5368 110.105 36.4359 110.147 36.335C110.193 36.2308 110.229 36.125 110.255 36.0176C110.304 35.8288 110.328 35.653 110.328 35.4902L111.417 35.6416C111.271 36.2666 111.015 36.8086 110.65 37.2676C110.188 37.8405 109.607 38.127 108.907 38.127C108.048 38.127 107.356 37.7184 106.832 36.9014C106.536 36.4424 106.332 35.8809 106.222 35.2168ZM111.51 31.584V30.6025H116.671V31.584H114.674V38H113.507V31.584H111.51ZM119.503 38V30.6025H120.67V36.877H123.727V38H119.503ZM125.982 34.875H127.364L126.676 32.4873L125.982 34.875ZM123.883 38L125.992 30.6025H127.271L129.381 38H128.253L127.643 35.8564H125.704L125.094 38H123.883ZM129.874 35.8125V30.6025H131.041V35.5342C131.041 36.3577 131.306 36.8688 131.837 37.0674C131.974 37.1195 132.127 37.1455 132.296 37.1455C132.465 37.1455 132.618 37.1227 132.755 37.0771C132.892 37.0316 133.002 36.9746 133.087 36.9062C133.172 36.8379 133.245 36.7516 133.307 36.6475C133.368 36.54 133.414 36.4424 133.443 36.3545C133.473 36.2666 133.497 36.1624 133.517 36.042C133.536 35.8857 133.546 35.7165 133.546 35.5342V30.6025H134.737V35.8125C134.737 36.5579 134.492 37.1488 134 37.585C133.593 37.9463 133.027 38.127 132.301 38.127C131.197 38.127 130.465 37.7087 130.104 36.8721C129.951 36.527 129.874 36.1738 129.874 35.8125ZM139.776 35.1436V30.6025H140.938V38H140.011L137.022 32.3262V38H135.86V30.6025H137.364L139.776 35.1436ZM141.896 35.2168C141.843 34.9108 141.817 34.6016 141.817 34.2891C141.817 33.9766 141.842 33.6689 141.891 33.3662C141.939 33.0635 142.011 32.7689 142.105 32.4824C142.203 32.1927 142.328 31.9274 142.481 31.6865C142.638 31.4424 142.815 31.2292 143.014 31.0469C143.437 30.6595 143.963 30.4658 144.591 30.4658C145.388 30.4658 146.018 30.8646 146.48 31.6621C146.705 32.0495 146.856 32.4482 146.935 32.8584V32.8633L145.919 33.1367C145.867 32.7884 145.805 32.5345 145.733 32.375C145.662 32.2122 145.59 32.0771 145.519 31.9697C145.447 31.859 145.369 31.7679 145.284 31.6963C145.082 31.5303 144.853 31.4473 144.596 31.4473C144.342 31.4473 144.124 31.5059 143.941 31.623C143.759 31.737 143.609 31.8883 143.492 32.0771C143.375 32.2627 143.277 32.4808 143.199 32.7314C143.056 33.1937 142.984 33.7145 142.984 34.2939C142.984 35.8304 143.349 36.7484 144.078 37.0479C144.234 37.113 144.4 37.1455 144.576 37.1455C144.752 37.1455 144.908 37.1227 145.045 37.0771C145.185 37.0316 145.302 36.973 145.396 36.9014C145.491 36.8265 145.574 36.7386 145.646 36.6377C145.72 36.5368 145.779 36.4359 145.821 36.335C145.867 36.2308 145.903 36.125 145.929 36.0176C145.978 35.8288 146.002 35.653 146.002 35.4902L147.091 35.6416C146.944 36.2666 146.689 36.8086 146.324 37.2676C145.862 37.8405 145.281 38.127 144.581 38.127C143.722 38.127 143.03 37.7184 142.506 36.9014C142.21 36.4424 142.006 35.8809 141.896 35.2168ZM147.892 38V30.6025H149.059V33.625H151.754V30.6025H152.921V38H151.754V34.6064H149.059V38H147.892ZM157.726 32.5557C157.726 31.9079 157.182 31.584 156.095 31.584H155.289V33.8057H156.095C156.596 33.8057 156.993 33.6982 157.286 33.4834C157.579 33.2653 157.726 32.9561 157.726 32.5557ZM154.122 38V30.6025H156.646C157.564 30.6025 158.207 30.8662 158.575 31.3936C158.787 31.6995 158.893 32.0723 158.893 32.5117C158.893 33.293 158.655 33.8984 158.18 34.3281C157.831 34.6374 157.372 34.792 156.803 34.792H155.289V38H154.122ZM160.816 34.875H162.198L161.51 32.4873L160.816 34.875ZM158.717 38L160.826 30.6025H162.105L164.215 38H163.087L162.477 35.8564H160.538L159.928 38H158.717ZM165.992 37.0186H166.695C167.376 37.0186 167.9 36.7728 168.268 36.2812C168.629 35.793 168.81 35.1501 168.81 34.3525C168.81 32.8324 168.323 31.9372 167.35 31.667C167.151 31.6117 166.933 31.584 166.695 31.584H165.992V37.0186ZM164.825 38V30.6025H166.568C168.352 30.6025 169.43 31.3203 169.801 32.7559C169.918 33.2148 169.977 33.6982 169.977 34.2061C169.977 34.7139 169.941 35.1419 169.869 35.4902C169.801 35.8385 169.682 36.1689 169.513 36.4814C169.343 36.7939 169.132 37.0609 168.878 37.2822C168.321 37.7607 167.551 38 166.568 38H164.825Z" fill="#C00000" fill-opacity="0.72"/>
<rect x="8.91138" y="2" width="40.2581" height="39.3684" fill="#DD0003"/>
<path d="M28.5243 27.4737V4.77893L38.8469 9.45138V23.135L28.5243 27.4737Z" fill="white" stroke="white"/>
<path d="M16.6533 31.6531V18.3148L26.6731 10.8V28.0014L36.7824 34.3438L28.2662 39.0526L16.6533 31.6531Z" fill="white" stroke="white"/>
</g>
<defs>
<linearGradient id="paint0_linear_29_25" x1="84.3357" y1="16.4526" x2="149.479" y2="16.645" gradientUnits="userSpaceOnUse">
<stop stop-color="#003471"/>
<stop offset="1" stop-color="#034CA1"/>
</linearGradient>
<clipPath id="clip0_29_25">
<rect width="176" height="44" fill="white"/>
</clipPath>
</defs>
</svg>
