<svg width="158" height="44" viewBox="0 0 158 44" fill="none" xmlns="http://www.w3.org/2000/svg">
<g clip-path="url(#clip0_29_25)">
<rect width="158" height="44" fill="white"/>
<path d="M54.2871 21.76L54.5751 18.664H62.9031L63.1671 21.76H54.2871ZM58.6791 14.368L56.3271 19.792L56.5191 20.68L54.4311 25H49.8471L58.6791 7.144L67.5351 25H62.9271L60.9111 20.848L61.0551 19.816L58.6791 14.368ZM70.4955 8.2H74.6235V25H70.4955V8.2ZM82.071 25V21.664H90.543V25H82.071ZM82.071 11.536V8.2H90.543V11.536H82.071ZM82.071 17.8V14.536H90.063V17.8H82.071ZM79.383 8.2H83.271V25H79.383V8.2ZM98.5 16.6C98.5 17.624 98.732 18.512 99.196 19.264C99.66 20 100.268 20.56 101.02 20.944C101.788 21.328 102.628 21.52 103.54 21.52C104.34 21.52 105.044 21.416 105.652 21.208C106.26 21 106.804 20.728 107.284 20.392C107.764 20.056 108.188 19.696 108.556 19.312V23.68C107.884 24.208 107.148 24.624 106.348 24.928C105.548 25.232 104.532 25.384 103.3 25.384C101.956 25.384 100.716 25.176 99.58 24.76C98.444 24.344 97.468 23.744 96.652 22.96C95.836 22.176 95.204 21.248 94.756 20.176C94.308 19.104 94.084 17.912 94.084 16.6C94.084 15.288 94.308 14.096 94.756 13.024C95.204 11.952 95.836 11.024 96.652 10.24C97.468 9.456 98.444 8.856 99.58 8.44C100.716 8.024 101.956 7.816 103.3 7.816C104.532 7.816 105.548 7.968 106.348 8.272C107.148 8.576 107.884 8.992 108.556 9.52V13.888C108.188 13.504 107.764 13.144 107.284 12.808C106.804 12.456 106.26 12.184 105.652 11.992C105.044 11.784 104.34 11.68 103.54 11.68C102.628 11.68 101.788 11.872 101.02 12.256C100.268 12.64 99.66 13.2 99.196 13.936C98.732 14.672 98.5 15.56 98.5 16.6ZM113.072 8.2H117.128V25H113.072V8.2ZM115.616 11.536V8.2H118.904C120.328 8.2 121.52 8.424 122.48 8.872C123.456 9.304 124.192 9.928 124.688 10.744C125.184 11.56 125.432 12.544 125.432 13.696C125.432 14.816 125.184 15.792 124.688 16.624C124.192 17.44 123.456 18.072 122.48 18.52C121.52 18.952 120.328 19.168 118.904 19.168H115.616V15.832H118.904C119.72 15.832 120.36 15.648 120.824 15.28C121.288 14.912 121.52 14.384 121.52 13.696C121.52 12.992 121.288 12.456 120.824 12.088C120.36 11.72 119.72 11.536 118.904 11.536H115.616ZM129.225 8.2H133.281V21.52H140.025V25H129.225V8.2Z" fill="url(#paint0_linear_29_25)"/>
<path d="M49.3643 36H48.7754V33.7588L47.0088 30.0674H47.6504L48.5996 32.0977C48.7285 32.373 48.8926 32.7568 49.0918 33.249C49.3027 32.7393 49.4668 32.3584 49.584 32.1064L50.5596 30.0674H51.1836L49.3643 33.7676V36ZM56.4982 33.0469C56.4982 33.8027 56.3488 34.4473 56.0499 34.9805C55.6339 35.7129 55.0216 36.0791 54.213 36.0791C53.6857 36.0791 53.2404 35.9326 52.8771 35.6396C52.2501 35.124 51.9366 34.2598 51.9366 33.0469C51.9366 32.2734 52.0948 31.6143 52.4113 31.0693C52.8331 30.3486 53.4425 29.9883 54.2394 29.9883C54.7784 29.9883 55.2325 30.1494 55.6017 30.4717C56.1993 30.999 56.4982 31.8574 56.4982 33.0469ZM52.5695 33.0469C52.5695 33.5801 52.6427 34.043 52.7892 34.4355C53.0587 35.1797 53.5333 35.5518 54.213 35.5518C54.5821 35.5518 54.9015 35.4287 55.171 35.1826C55.6339 34.749 55.8654 34.0371 55.8654 33.0469C55.8654 32.4961 55.7892 32.0156 55.6368 31.6055C55.3556 30.8789 54.8868 30.5156 54.2306 30.5156C53.8439 30.5156 53.5128 30.6562 53.2374 30.9375C52.7921 31.3887 52.5695 32.0918 52.5695 33.0469ZM62.05 33.8818C62.05 34.3857 61.9534 34.8164 61.76 35.1738C61.426 35.7832 60.8606 36.0879 60.0637 36.0879C59.8938 36.0879 59.7327 36.0732 59.5803 36.0439C58.6018 35.8564 58.1125 35.1064 58.1125 33.7939V30.0674H58.7014V33.8027C58.7073 34.9629 59.1584 35.5488 60.0549 35.5605C60.9807 35.5547 61.4495 34.9893 61.4612 33.8643V30.0674H62.05V33.8818ZM64.6488 36H64.0511V30.0674C64.4906 30.0498 64.9535 30.041 65.4398 30.041C66.7816 30.0469 67.4584 30.5889 67.4701 31.667C67.4701 31.8369 67.4496 32.001 67.4086 32.1592C67.2562 32.7568 66.8666 33.1494 66.2396 33.3369L67.2504 35.3672C67.3265 35.5195 67.4408 35.6016 67.5931 35.6133H67.6459L67.681 36.0527C67.6048 36.0703 67.514 36.0791 67.4086 36.0791C67.1332 36.0732 66.9105 35.915 66.7406 35.6045L65.6771 33.4336C65.6244 33.4395 65.5453 33.4424 65.4398 33.4424H64.6488V36ZM65.4046 30.5508C65.2171 30.5508 64.9652 30.5566 64.6488 30.5684V32.9414H65.4134C65.5248 32.9414 65.6332 32.9355 65.7386 32.9238C66.4769 32.8301 66.8461 32.4346 66.8461 31.7373C66.8461 31.5088 66.8138 31.3125 66.7494 31.1484C66.5795 30.75 66.1312 30.5508 65.4046 30.5508ZM73.0191 36H72.4215V30.0674C72.8609 30.0498 73.3238 30.041 73.8102 30.041C74.0797 30.041 74.3258 30.0645 74.5484 30.1113C75.3922 30.3047 75.8141 30.832 75.8141 31.6934C75.8141 32.0742 75.7232 32.4141 75.5416 32.7129C75.2076 33.2578 74.6539 33.5303 73.8805 33.5303H73.0191V36ZM73.775 30.5508C73.5875 30.5508 73.3355 30.5566 73.0191 30.5684V33.0205H73.7223C73.8922 33.0205 74.0533 33.0059 74.2057 32.9766C74.8619 32.8477 75.19 32.4521 75.19 31.79C75.19 31.6494 75.1783 31.5205 75.1549 31.4033C75.0318 30.835 74.5719 30.5508 73.775 30.5508ZM80.2409 35.499V36H77.2966V30.0674H80.1618V30.5684H77.8855V32.6602H79.907V33.1611H77.8855V35.499H80.2409ZM82.6112 36H82.0135V30.0674C82.453 30.0498 82.9159 30.041 83.4022 30.041C84.744 30.0469 85.4207 30.5889 85.4325 31.667C85.4325 31.8369 85.412 32.001 85.3709 32.1592C85.2186 32.7568 84.8289 33.1494 84.202 33.3369L85.2127 35.3672C85.2889 35.5195 85.4032 35.6016 85.5555 35.6133H85.6082L85.6434 36.0527C85.5672 36.0703 85.4764 36.0791 85.3709 36.0791C85.0955 36.0732 84.8729 35.915 84.703 35.6045L83.6395 33.4336C83.5868 33.4395 83.5077 33.4424 83.4022 33.4424H82.6112V36ZM83.367 30.5508C83.1795 30.5508 82.9276 30.5566 82.6112 30.5684V32.9414H83.3758C83.4871 32.9414 83.5955 32.9355 83.701 32.9238C84.4393 32.8301 84.8084 32.4346 84.8084 31.7373C84.8084 31.5088 84.7762 31.3125 84.7118 31.1484C84.5418 30.75 84.0936 30.5508 83.367 30.5508ZM90 30.0674V30.5684H87.706V32.625H89.7451V33.126H87.706V36H87.1171V30.0674H90ZM94.5587 35.499V36H91.6143V30.0674H94.4796V30.5684H92.2032V32.6602H94.2247V33.1611H92.2032V35.499H94.5587ZM98.3088 35.5342C98.7365 35.5342 99.2141 35.373 99.7414 35.0508L99.9787 35.4814C99.3635 35.874 98.7805 36.0732 98.2297 36.0791C97.7023 36.0791 97.2482 35.9121 96.8674 35.5781C96.2639 35.0391 95.9621 34.1953 95.9621 33.0469C95.9621 32.1855 96.1408 31.4824 96.4982 30.9375C96.9201 30.3047 97.509 29.9883 98.2648 29.9883C98.3762 29.9883 98.4904 29.9971 98.6076 30.0146C99.3342 30.126 99.8322 30.5596 100.102 31.3154L99.5393 31.4824C99.2814 30.8496 98.8537 30.5273 98.2561 30.5156C97.9455 30.5156 97.6701 30.6006 97.4299 30.7705C96.8791 31.1631 96.6037 31.9219 96.6037 33.0469C96.6037 33.5977 96.6799 34.0664 96.8322 34.4531C97.1135 35.1738 97.6057 35.5342 98.3088 35.5342ZM100.661 30.0586H104.133V30.5684H102.683V36H102.094V30.5684H100.661V30.0586ZM111.545 36H108.777V30.0674H109.366V35.499H111.545V36ZM112.931 36H112.316L114.188 30.0674H114.97L116.825 36H116.183L115.735 34.5234H113.388L112.931 36ZM114.232 31.7637L113.529 34.0576H115.594L114.891 31.7461C114.792 31.3945 114.683 30.999 114.566 30.5596C114.484 30.8467 114.373 31.248 114.232 31.7637ZM121.893 33.8818C121.893 34.3857 121.797 34.8164 121.603 35.1738C121.269 35.7832 120.704 36.0879 119.907 36.0879C119.737 36.0879 119.576 36.0732 119.424 36.0439C118.445 35.8564 117.956 35.1064 117.956 33.7939V30.0674H118.545V33.8027C118.551 34.9629 119.002 35.5488 119.898 35.5605C120.824 35.5547 121.293 34.9893 121.304 33.8643V30.0674H121.893V33.8818ZM127.858 36L127.349 36.0703L124.422 31.1484V36H123.859V30.0674L124.395 29.9971L127.296 34.8486V30.0674H127.858V36ZM131.846 35.5342C132.273 35.5342 132.751 35.373 133.278 35.0508L133.516 35.4814C132.9 35.874 132.317 36.0732 131.767 36.0791C131.239 36.0791 130.785 35.9121 130.404 35.5781C129.801 35.0391 129.499 34.1953 129.499 33.0469C129.499 32.1855 129.678 31.4824 130.035 30.9375C130.457 30.3047 131.046 29.9883 131.802 29.9883C131.913 29.9883 132.027 29.9971 132.145 30.0146C132.871 30.126 133.369 30.5596 133.639 31.3154L133.076 31.4824C132.818 30.8496 132.391 30.5273 131.793 30.5156C131.482 30.5156 131.207 30.6006 130.967 30.7705C130.416 31.1631 130.141 31.9219 130.141 33.0469C130.141 33.5977 130.217 34.0664 130.369 34.4531C130.65 35.1738 131.143 35.5342 131.846 35.5342ZM138.356 36V33.1611H135.613V36H135.025V30.0674H135.613V32.6689H138.356V30.0674H138.944V36H138.356ZM141.552 36H140.954V30.0674C141.394 30.0498 141.857 30.041 142.343 30.041C142.613 30.041 142.859 30.0645 143.081 30.1113C143.925 30.3047 144.347 30.832 144.347 31.6934C144.347 32.0742 144.256 32.4141 144.074 32.7129C143.741 33.2578 143.187 33.5303 142.413 33.5303H141.552V36ZM142.308 30.5508C142.12 30.5508 141.868 30.5566 141.552 30.5684V33.0205H142.255C142.425 33.0205 142.586 33.0059 142.739 32.9766C143.395 32.8477 143.723 32.4521 143.723 31.79C143.723 31.6494 143.711 31.5205 143.688 31.4033C143.565 30.835 143.105 30.5508 142.308 30.5508ZM145.416 36H144.801L146.673 30.0674H147.455L149.31 36H148.668L148.22 34.5234H145.873L145.416 36ZM146.717 31.7637L146.014 34.0576H148.079L147.376 31.7461C147.277 31.3945 147.168 30.999 147.051 30.5596C146.969 30.8467 146.858 31.248 146.717 31.7637ZM150.678 30.0674C150.813 30.0674 151.006 30.0645 151.258 30.0586C151.668 30.0469 151.964 30.041 152.146 30.041C152.685 30.041 153.145 30.1582 153.526 30.3926C154.27 30.8672 154.642 31.752 154.642 33.0469C154.642 33.709 154.525 34.2803 154.291 34.7607C153.869 35.6104 153.148 36.0322 152.128 36.0264C151.701 36.0264 151.217 36.0176 150.678 36V30.0674ZM152.128 35.5078C152.492 35.5078 152.802 35.4316 153.06 35.2793C153.693 34.9102 154.009 34.166 154.009 33.0469C154.009 32.625 153.959 32.2471 153.86 31.9131C153.596 31.0107 153.025 30.5596 152.146 30.5596C151.777 30.5596 151.484 30.5625 151.267 30.5684V35.499C151.478 35.5049 151.765 35.5078 152.128 35.5078Z" fill="#C00000" fill-opacity="0.72"/>
<rect x="8" y="2" width="36.1408" height="39.3684" fill="#DD0003"/>
<path d="M25.6071 27.4737V4.77893L34.8739 9.45138V23.135L25.6071 27.4737Z" fill="white" stroke="white"/>
<path d="M14.9501 31.6531V18.3148L23.9452 10.8V28.0014L33.0205 34.3438L25.3754 39.0526L14.9501 31.6531Z" fill="white" stroke="white"/>
</g>
<defs>
<linearGradient id="paint0_linear_29_25" x1="71.6423" y1="16.4526" x2="130.123" y2="16.6076" gradientUnits="userSpaceOnUse">
<stop stop-color="#003471"/>
<stop offset="1" stop-color="#034CA1"/>
</linearGradient>
<clipPath id="clip0_29_25">
<rect width="158" height="44" fill="white"/>
</clipPath>
</defs>
</svg>
