<svg width="158" height="44" viewBox="0 0 158 44" fill="none" xmlns="http://www.w3.org/2000/svg">
<g clip-path="url(#clip0_29_25)">
<rect width="158" height="44" fill="white"/>
<path d="M54.2871 21.76L54.5751 18.664H62.9031L63.1671 21.76H54.2871ZM58.6791 14.368L56.3271 19.792L56.5191 20.68L54.4311 25H49.8471L58.6791 7.144L67.5351 25H62.9271L60.9111 20.848L61.0551 19.816L58.6791 14.368ZM70.4955 8.2H74.6235V25H70.4955V8.2ZM82.071 25V21.664H90.543V25H82.071ZM82.071 11.536V8.2H90.543V11.536H82.071ZM82.071 17.8V14.536H90.063V17.8H82.071ZM79.383 8.2H83.271V25H79.383V8.2ZM98.5 16.6C98.5 17.624 98.732 18.512 99.196 19.264C99.66 20 100.268 20.56 101.02 20.944C101.788 21.328 102.628 21.52 103.54 21.52C104.34 21.52 105.044 21.416 105.652 21.208C106.26 21 106.804 20.728 107.284 20.392C107.764 20.056 108.188 19.696 108.556 19.312V23.68C107.884 24.208 107.148 24.624 106.348 24.928C105.548 25.232 104.532 25.384 103.3 25.384C101.956 25.384 100.716 25.176 99.58 24.76C98.444 24.344 97.468 23.744 96.652 22.96C95.836 22.176 95.204 21.248 94.756 20.176C94.308 19.104 94.084 17.912 94.084 16.6C94.084 15.288 94.308 14.096 94.756 13.024C95.204 11.952 95.836 11.024 96.652 10.24C97.468 9.456 98.444 8.856 99.58 8.44C100.716 8.024 101.956 7.816 103.3 7.816C104.532 7.816 105.548 7.968 106.348 8.272C107.148 8.576 107.884 8.992 108.556 9.52V13.888C108.188 13.504 107.764 13.144 107.284 12.808C106.804 12.456 106.26 12.184 105.652 11.992C105.044 11.784 104.34 11.68 103.54 11.68C102.628 11.68 101.788 11.872 101.02 12.256C100.268 12.64 99.66 13.2 99.196 13.936C98.732 14.672 98.5 15.56 98.5 16.6ZM113.072 8.2H117.128V25H113.072V8.2ZM115.616 11.536V8.2H118.904C120.328 8.2 121.52 8.424 122.48 8.872C123.456 9.304 124.192 9.928 124.688 10.744C125.184 11.56 125.432 12.544 125.432 13.696C125.432 14.816 125.184 15.792 124.688 16.624C124.192 17.44 123.456 18.072 122.48 18.52C121.52 18.952 120.328 19.168 118.904 19.168H115.616V15.832H118.904C119.72 15.832 120.36 15.648 120.824 15.28C121.288 14.912 121.52 14.384 121.52 13.696C121.52 12.992 121.288 12.456 120.824 12.088C120.36 11.72 119.72 11.536 118.904 11.536H115.616ZM129.225 8.2H133.281V21.52H140.025V25H129.225V8.2Z" fill="url(#paint0_linear_29_25)"/>
<path d="M52.8633 30.3984L51.0391 34.0078V36H49.7773V34.0312L48 30.3984H49.4414L50.3438 32.4883C50.3594 32.5273 50.4023 32.6797 50.4727 32.9453H50.4883C50.5221 32.7578 50.5625 32.6107 50.6094 32.5039L51.5273 30.3984H52.8633ZM55.6875 36.0977C54.8854 36.0977 54.2318 35.8372 53.7266 35.3164C53.2214 34.793 52.9688 34.112 52.9688 33.2734C52.9688 32.388 53.2253 31.6719 53.7383 31.125C54.2513 30.5781 54.931 30.3047 55.7773 30.3047C56.5768 30.3047 57.2227 30.5664 57.7148 31.0898C58.2096 31.6133 58.457 32.3034 58.457 33.1602C58.457 34.0404 58.2005 34.75 57.6875 35.2891C57.1771 35.8281 56.5104 36.0977 55.6875 36.0977ZM55.7422 31.3906C55.2995 31.3906 54.9479 31.5573 54.6875 31.8906C54.4271 32.2214 54.2969 32.6602 54.2969 33.207C54.2969 33.7617 54.4271 34.2005 54.6875 34.5234C54.9479 34.8464 55.2891 35.0078 55.7109 35.0078C56.1458 35.0078 56.4909 34.8516 56.7461 34.5391C57.0013 34.224 57.1289 33.7878 57.1289 33.2305C57.1289 32.6497 57.0052 32.1979 56.7578 31.875C56.5104 31.5521 56.1719 31.3906 55.7422 31.3906ZM63.957 33.5742C63.957 35.2565 63.1732 36.0977 61.6055 36.0977C60.0846 36.0977 59.3242 35.276 59.3242 33.6328V30.3984H60.5898V33.6484C60.5898 34.5547 60.944 35.0078 61.6523 35.0078C62.3477 35.0078 62.6953 34.5703 62.6953 33.6953V30.3984H63.957V33.5742ZM69.8789 36H68.4297L67.5586 34.5586C67.4935 34.4492 67.431 34.3516 67.3711 34.2656C67.3112 34.1797 67.25 34.1068 67.1875 34.0469C67.1276 33.9844 67.0638 33.9375 66.9961 33.9062C66.931 33.8724 66.8594 33.8555 66.7812 33.8555H66.4414V36H65.1797V30.3984H67.1797C68.5391 30.3984 69.2188 30.9062 69.2188 31.9219C69.2188 32.1172 69.1888 32.2982 69.1289 32.4648C69.069 32.6289 68.9844 32.7773 68.875 32.9102C68.7656 33.043 68.6328 33.1576 68.4766 33.2539C68.3229 33.3503 68.151 33.4258 67.9609 33.4805V33.4961C68.0443 33.5221 68.125 33.5651 68.2031 33.625C68.2812 33.6823 68.3568 33.75 68.4297 33.8281C68.5026 33.9062 68.5716 33.9909 68.6367 34.082C68.7044 34.1706 68.7656 34.2578 68.8203 34.3438L69.8789 36ZM66.4414 31.3438V32.9023H66.9883C67.2591 32.9023 67.4766 32.8242 67.6406 32.668C67.8073 32.5091 67.8906 32.3125 67.8906 32.0781C67.8906 31.5885 67.5977 31.3438 67.0117 31.3438H66.4414ZM73.8789 34.0703V36H72.6172V30.3984H74.5938C76.0052 30.3984 76.7109 30.9935 76.7109 32.1836C76.7109 32.7461 76.5078 33.2018 76.1016 33.5508C75.6979 33.8971 75.1576 34.0703 74.4805 34.0703H73.8789ZM73.8789 31.3672V33.1133H74.375C75.0469 33.1133 75.3828 32.819 75.3828 32.2305C75.3828 31.6549 75.0469 31.3672 74.375 31.3672H73.8789ZM80.8906 36H77.5312V30.3984H80.7617V31.4258H78.793V32.6719H80.625V33.6953H78.793V34.9766H80.8906V36ZM86.4883 36H85.0391L84.168 34.5586C84.1029 34.4492 84.0404 34.3516 83.9805 34.2656C83.9206 34.1797 83.8594 34.1068 83.7969 34.0469C83.737 33.9844 83.6732 33.9375 83.6055 33.9062C83.5404 33.8724 83.4688 33.8555 83.3906 33.8555H83.0508V36H81.7891V30.3984H83.7891C85.1484 30.3984 85.8281 30.9062 85.8281 31.9219C85.8281 32.1172 85.7982 32.2982 85.7383 32.4648C85.6784 32.6289 85.5938 32.7773 85.4844 32.9102C85.375 33.043 85.2422 33.1576 85.0859 33.2539C84.9323 33.3503 84.7604 33.4258 84.5703 33.4805V33.4961C84.6536 33.5221 84.7344 33.5651 84.8125 33.625C84.8906 33.6823 84.9661 33.75 85.0391 33.8281C85.112 33.9062 85.181 33.9909 85.2461 34.082C85.3138 34.1706 85.375 34.2578 85.4297 34.3438L86.4883 36ZM83.0508 31.3438V32.9023H83.5977C83.8685 32.9023 84.0859 32.8242 84.25 32.668C84.4167 32.5091 84.5 32.3125 84.5 32.0781C84.5 31.5885 84.207 31.3438 83.6211 31.3438H83.0508ZM90.2539 31.4258H88.2773V32.8008H90.0938V33.8242H88.2773V36H87.0156V30.3984H90.2539V31.4258ZM94.5391 36H91.1797V30.3984H94.4102V31.4258H92.4414V32.6719H94.2734V33.6953H92.4414V34.9766H94.5391V36ZM99.4531 35.8008C99.0443 35.9987 98.5104 36.0977 97.8516 36.0977C96.9922 36.0977 96.3164 35.8451 95.8242 35.3398C95.332 34.8346 95.0859 34.1615 95.0859 33.3203C95.0859 32.4245 95.362 31.6979 95.9141 31.1406C96.4688 30.5833 97.1875 30.3047 98.0703 30.3047C98.6172 30.3047 99.0781 30.3737 99.4531 30.5117V31.7266C99.0781 31.5026 98.651 31.3906 98.1719 31.3906C97.6458 31.3906 97.2214 31.556 96.8984 31.8867C96.5755 32.2174 96.4141 32.6654 96.4141 33.2305C96.4141 33.7721 96.5664 34.2044 96.8711 34.5273C97.1758 34.8477 97.5859 35.0078 98.1016 35.0078C98.5938 35.0078 99.0443 34.888 99.4531 34.6484V35.8008ZM104.363 31.4258H102.766V36H101.5V31.4258H99.9102V30.3984H104.363V31.4258ZM110.664 36H107.328V30.3984H108.59V34.9766H110.664V36ZM116.582 36H115.207L114.809 34.7539H112.816L112.422 36H111.055L113.094 30.3984H114.59L116.582 36ZM114.52 33.7852L113.918 31.9023C113.874 31.7617 113.842 31.5938 113.824 31.3984H113.793C113.78 31.5625 113.747 31.7253 113.695 31.8867L113.086 33.7852H114.52ZM121.738 33.5742C121.738 35.2565 120.954 36.0977 119.387 36.0977C117.866 36.0977 117.105 35.276 117.105 33.6328V30.3984H118.371V33.6484C118.371 34.5547 118.725 35.0078 119.434 35.0078C120.129 35.0078 120.477 34.5703 120.477 33.6953V30.3984H121.738V33.5742ZM128 36H126.727L124.418 32.4805C124.283 32.2747 124.189 32.1198 124.137 32.0156H124.121C124.142 32.2135 124.152 32.5156 124.152 32.9219V36H122.961V30.3984H124.32L126.543 33.8086C126.645 33.9622 126.738 34.1146 126.824 34.2656H126.84C126.819 34.1354 126.809 33.8789 126.809 33.4961V30.3984H128V36ZM133.297 35.8008C132.888 35.9987 132.354 36.0977 131.695 36.0977C130.836 36.0977 130.16 35.8451 129.668 35.3398C129.176 34.8346 128.93 34.1615 128.93 33.3203C128.93 32.4245 129.206 31.6979 129.758 31.1406C130.312 30.5833 131.031 30.3047 131.914 30.3047C132.461 30.3047 132.922 30.3737 133.297 30.5117V31.7266C132.922 31.5026 132.495 31.3906 132.016 31.3906C131.49 31.3906 131.065 31.556 130.742 31.8867C130.419 32.2174 130.258 32.6654 130.258 33.2305C130.258 33.7721 130.41 34.2044 130.715 34.5273C131.02 34.8477 131.43 35.0078 131.945 35.0078C132.438 35.0078 132.888 34.888 133.297 34.6484V35.8008ZM139.121 36H137.855V33.7188H135.535V36H134.273V30.3984H135.535V32.6328H137.855V30.3984H139.121V36ZM141.668 34.0703V36H140.406V30.3984H142.383C143.794 30.3984 144.5 30.9935 144.5 32.1836C144.5 32.7461 144.297 33.2018 143.891 33.5508C143.487 33.8971 142.947 34.0703 142.27 34.0703H141.668ZM141.668 31.3672V33.1133H142.164C142.836 33.1133 143.172 32.819 143.172 32.2305C143.172 31.6549 142.836 31.3672 142.164 31.3672H141.668ZM149.629 36H148.254L147.855 34.7539H145.863L145.469 36H144.102L146.141 30.3984H147.637L149.629 36ZM147.566 33.7852L146.965 31.9023C146.921 31.7617 146.889 31.5938 146.871 31.3984H146.84C146.827 31.5625 146.794 31.7253 146.742 31.8867L146.133 33.7852H147.566ZM150.328 36V30.3984H152.312C154.302 30.3984 155.297 31.3086 155.297 33.1289C155.297 34.0013 155.025 34.6979 154.48 35.2188C153.939 35.7396 153.216 36 152.312 36H150.328ZM151.59 31.4258V34.9766H152.215C152.762 34.9766 153.19 34.8125 153.5 34.4844C153.812 34.1562 153.969 33.7096 153.969 33.1445C153.969 32.6107 153.814 32.1914 153.504 31.8867C153.197 31.5794 152.764 31.4258 152.207 31.4258H151.59Z" fill="#C00000" fill-opacity="0.72"/>
<rect x="8" y="2" width="36.1408" height="39.3684" fill="#DD0003"/>
<path d="M25.6071 27.4737V4.77893L34.8739 9.45138V23.135L25.6071 27.4737Z" fill="white" stroke="white"/>
<path d="M14.9501 31.6531V18.3148L23.9452 10.8V28.0014L33.0205 34.3438L25.3754 39.0526L14.9501 31.6531Z" fill="white" stroke="white"/>
</g>
<defs>
<linearGradient id="paint0_linear_29_25" x1="71.6423" y1="16.4526" x2="130.123" y2="16.6076" gradientUnits="userSpaceOnUse">
<stop stop-color="#003471"/>
<stop offset="1" stop-color="#034CA1"/>
</linearGradient>
<clipPath id="clip0_29_25">
<rect width="158" height="44" fill="white"/>
</clipPath>
</defs>
</svg>
