<svg xmlns="http://www.w3.org/2000/svg" version="1.1" xmlns:xlink="http://www.w3.org/1999/xlink" xmlns:svgjs="http://svgjs.dev/svgjs" viewBox="0 0 2.3578449010199583 0.715958401019958"><g transform="matrix(1,0,0,1,0.6265595396859671,0.2259515090304868)"><g><path d=" M 0.056783935546875004 0.03769848632812503 L 0.040532958984375 0.0022675781250000304 L 0.09807275390625 0.0022675781250000304 L 0.16685595703125 0.14276293945312502 L 0.105158935546875 0.14276293945312502 L 0.094765869140625 0.12027612304687503 L 0.039399169921875 0.12027612304687503 L 0.0291005859375 0.14276293945312502 L 0.005196533203125 0.14276293945312502 L 0.056783935546875004 0.03769848632812503 M 0.08484521484375 0.09863964843750003 L 0.06708251953125 0.06009082031250003 L 0.049414306640625 0.09863964843750003 L 0.08484521484375 0.09863964843750003 M 0.18669821044921875 0.0022675781250000304 L 0.24140353271484377 0.0022675781250000304 L 0.24130905029296876 0.14266845703125003 L 0.18669821044921875 0.14266845703125003 L 0.18669821044921875 0.0022675781250000304 M 0.2778746923828125 0.0022675781250000304 L 0.3965446142578125 0.0022675781250000304 L 0.3965446142578125 0.023904052734375028 L 0.3325800146484375 0.023904052734375028 L 0.3324855322265625 0.06179150390625003 L 0.3814274267578125 0.06179150390625003 L 0.3814274267578125 0.08342797851562503 L 0.3324855322265625 0.08342797851562503 L 0.3324855322265625 0.12103198242187503 L 0.3965446142578125 0.12103198242187503 L 0.3965446142578125 0.14266845703125003 L 0.2778746923828125 0.14266845703125003 L 0.2778746923828125 0.0022675781250000304 M 0.41695376220703123 0.07256250000000003 Q 0.41695376220703123 0.06254736328125003 0.4195520288085937 0.05324084472656253 Q 0.4221502954101562 0.043934326171875024 0.4271578637695312 0.03590332031250003 Q 0.43216543212890624 0.02787231445312502 0.43944057861328123 0.021258544921875025 Q 0.4467157250976562 0.014644775390625031 0.45602224365234373 0.009920654296875026 Q 0.46532876220703123 0.00519653320312502 0.4765721704101562 0.0025982666015625377 Q 0.4878155786132812 2.7755575615628914e-17 0.5007596704101562 2.7755575615628914e-17 Q 0.5090741235351562 2.7755575615628914e-17 0.5166799584960937 0.001039306640625015 Q 0.5242857934570312 0.00207861328125003 0.5309940454101563 0.0039210205078125115 Q 0.5377022973632812 0.005763427734375021 0.5434184838867187 0.00817272949218753 Q 0.5491346704101562 0.010582031250000012 0.5537643090820312 0.013227539062500016 L 0.5456388208007812 0.02910058593750002 Q 0.5403478051757812 0.02654956054687503 0.5335923120117188 0.024801635742187522 Q 0.5268368188476562 0.023053710937500027 0.5195616723632812 0.023053710937500027 Q 0.5098299829101562 0.023053710937500027 0.5015155297851562 0.02654956054687503 Q 0.4932010766601562 0.03004541015625002 0.4871542016601562 0.03647021484375003 Q 0.4811073266601562 0.04289501953125002 0.4776587182617187 0.052012573242187526 Q 0.4742101098632812 0.06113012695312503 0.4742101098632812 0.07246801757812503 Q 0.4742101098632812 0.08371142578125003 0.4776114770507812 0.09282897949218752 Q 0.4810128442382812 0.10194653320312502 0.4870124780273437 0.10841857910156252 Q 0.4930121118164062 0.11489062500000002 0.5012793237304687 0.11843371582031254 Q 0.5095465356445312 0.12197680664062503 0.5191837426757813 0.12197680664062503 Q 0.5259864770507812 0.12197680664062503 0.5327892114257812 0.12032336425781252 Q 0.5395919458007812 0.11866992187500003 0.5452608911132812 0.11592993164062503 L 0.5533863793945312 0.13180297851562503 Q 0.5487567407226562 0.13454296875000002 0.5430877954101562 0.13690502929687504 Q 0.5374188500976562 0.13926708984375002 0.5308050805664062 0.14110949707031253 Q 0.5241913110351561 0.14295190429687502 0.5166327172851563 0.14399121093750003 Q 0.5090741235351562 0.14503051757812502 0.5007596704101562 0.14503051757812502 Q 0.4813907739257812 0.14503051757812502 0.4658484155273437 0.13931433105468752 Q 0.4503060571289062 0.13359814453125002 0.43944057861328123 0.12372473144531253 Q 0.4285751000976562 0.11385131835937504 0.4227644311523437 0.10067102050781253 Q 0.41695376220703123 0.08749072265625002 0.41695376220703123 0.07256250000000003 M 0.5760631054687501 0.0022675781250000304 L 0.643618037109375 0.0022675781250000304 Q 0.662325556640625 0.0021730957031250164 0.6758837841796875 0.005527221679687527 Q 0.6894420117187501 0.008881347656250038 0.6982288769531251 0.015117187500000018 Q 0.7070157421875001 0.021353027343750025 0.7112202099609375 0.03009265136718753 Q 0.715424677734375 0.03883227539062503 0.715424677734375 0.04950878906250003 Q 0.715424677734375 0.05886254882812503 0.7115036572265625 0.06741320800781253 Q 0.70758263671875 0.07596386718750003 0.6994099072265625 0.08248315429687503 Q 0.691237177734375 0.08900244140625002 0.6786237744140625 0.09287622070312503 Q 0.66601037109375 0.09675000000000003 0.64862560546875 0.09675000000000003 L 0.6306739453125 0.09675000000000003 L 0.6306739453125 0.14266845703125003 L 0.5760631054687501 0.14266845703125003 L 0.5760631054687501 0.0022675781250000304 M 0.6306739453125 0.07615283203125003 Q 0.637193232421875 0.07605834960937503 0.642295283203125 0.07412145996093752 Q 0.647397333984375 0.07218457031250003 0.65089318359375 0.06873596191406253 Q 0.654389033203125 0.06528735351562502 0.6562314404296875 0.06042150878906252 Q 0.65807384765625 0.055555664062500024 0.65807384765625 0.04950878906250003 Q 0.65807384765625 0.04355639648437502 0.65618419921875 0.03873779296875003 Q 0.65429455078125 0.033919189453125026 0.6507514599609375 0.03047058105468753 Q 0.647208369140625 0.027021972656250032 0.6421535595703125 0.02503784179687503 Q 0.63709875 0.023053710937500027 0.6306739453125 0.022864746093750027 L 0.6306739453125 0.07615283203125003 M 0.7385738159179688 0.0022675781250000304 L 0.7932791381835937 0.0022675781250000304 L 0.7931846557617187 0.12103198242187503 L 0.8468506713867188 0.12103198242187503 L 0.8468506713867188 0.14266845703125003 L 0.7385738159179688 0.14266845703125003 L 0.7385738159179688 0.0022675781250000304" fill="#382d5e" fill-rule="nonzero"></path></g><g><path d=" M 0.011020499999999999 0.17992038295898438 L 0.0385125 0.22518738295898438 L 0.0662415 0.17992038295898438 L 0.0752475 0.17992038295898438 L 0.04266 0.2327713829589844 L 0.04266 0.2640553829589844 L 0.034365 0.2640553829589844 L 0.034365 0.2325343829589844 L 0.001896 0.17992038295898438 L 0.011020499999999999 0.17992038295898438 M 0.115893462890625 0.2646478829589844 Q 0.107005962890625 0.2646478829589844 0.099777462890625 0.2610928829589844 Q 0.092548962890625 0.2575378829589844 0.087334962890625 0.2514351329589844 Q 0.082120962890625 0.2453323829589844 0.079276962890625 0.2376891329589844 Q 0.076432962890625 0.2300458829589844 0.076432962890625 0.2219878829589844 Q 0.076432962890625 0.2135743829589844 0.079395462890625 0.2059311329589844 Q 0.082357962890625 0.19828788295898442 0.087749712890625 0.1923036329589844 Q 0.093141462890625 0.1863193829589844 0.100369962890625 0.1828236329589844 Q 0.107598462890625 0.17932788295898439 0.116011962890625 0.17932788295898439 Q 0.12489946289062501 0.17932788295898439 0.132127962890625 0.18300138295898438 Q 0.139356462890625 0.1866748829589844 0.14451121289062502 0.1928368829589844 Q 0.149665962890625 0.19899888295898438 0.15250996289062502 0.20658288295898442 Q 0.155353962890625 0.2141668829589844 0.155353962890625 0.22210638295898438 Q 0.155353962890625 0.2305198829589844 0.152391462890625 0.2381631329589844 Q 0.14942896289062502 0.2458063829589844 0.144096462890625 0.2517906329589844 Q 0.13876396289062498 0.2577748829589844 0.131535462890625 0.2612113829589844 Q 0.124306962890625 0.2646478829589844 0.115893462890625 0.2646478829589844 M 0.08472796289062501 0.2219878829589844 Q 0.08472796289062501 0.2288608829589844 0.086979462890625 0.2352006329589844 Q 0.089230962890625 0.2415403829589844 0.093378462890625 0.2464581329589844 Q 0.097525962890625 0.2513758829589844 0.103273212890625 0.2542791329589844 Q 0.109020462890625 0.2571823829589844 0.115893462890625 0.2571823829589844 Q 0.12312196289062499 0.2571823829589844 0.128869212890625 0.2541606329589844 Q 0.134616462890625 0.2511388829589844 0.138704712890625 0.2461026329589844 Q 0.14279296289062499 0.2410663829589844 0.14492596289062498 0.2347858829589844 Q 0.14705896289062498 0.2285053829589844 0.14705896289062498 0.2219878829589844 Q 0.14705896289062498 0.2151148829589844 0.14480746289062502 0.2088343829589844 Q 0.142555962890625 0.2025538829589844 0.13834921289062502 0.1975768829589844 Q 0.13414246289062498 0.1925998829589844 0.128454462890625 0.1897558829589844 Q 0.122766462890625 0.18691188295898442 0.115893462890625 0.18691188295898442 Q 0.108783462890625 0.18691188295898442 0.103036212890625 0.1898743829589844 Q 0.097288962890625 0.1928368829589844 0.09320071289062501 0.1978731329589844 Q 0.089112462890625 0.2029093829589844 0.086920212890625 0.20918988295898439 Q 0.08472796289062501 0.2154703829589844 0.08472796289062501 0.2219878829589844 M 0.205121185546875 0.2646478829589844 Q 0.195167185546875 0.2646478829589844 0.188294185546875 0.2610928829589844 Q 0.181421185546875 0.2575378829589844 0.177392185546875 0.2515536329589844 Q 0.173363185546875 0.2455693829589844 0.171526435546875 0.2379853829589844 Q 0.169689685546875 0.2304013829589844 0.169689685546875 0.2223433829589844 L 0.169689685546875 0.17992038295898438 L 0.177866185546875 0.17992038295898438 L 0.177866185546875 0.2223433829589844 Q 0.177866185546875 0.2288608829589844 0.179228935546875 0.2351413829589844 Q 0.180591685546875 0.2414218829589844 0.183672685546875 0.2463988829589844 Q 0.186753685546875 0.2513758829589844 0.191967685546875 0.2542791329589844 Q 0.19718168554687499 0.2571823829589844 0.205002685546875 0.2571823829589844 Q 0.213060685546875 0.2571823829589844 0.218333935546875 0.2541606329589844 Q 0.223607185546875 0.2511388829589844 0.226628935546875 0.2461618829589844 Q 0.229650685546875 0.2411848829589844 0.230954185546875 0.2349636329589844 Q 0.23225768554687498 0.2287423829589844 0.23225768554687498 0.2223433829589844 L 0.23225768554687498 0.17992038295898438 L 0.24055268554687498 0.17992038295898438 L 0.24055268554687498 0.2223433829589844 Q 0.24055268554687498 0.2307568829589844 0.238656685546875 0.2384593829589844 Q 0.23676068554687502 0.2461618829589844 0.23255393554687498 0.2519683829589844 Q 0.228347185546875 0.2577748829589844 0.221592685546875 0.2612113829589844 Q 0.214838185546875 0.2646478829589844 0.205121185546875 0.2646478829589844 M 0.26022426416015626 0.2640553829589844 L 0.26022426416015626 0.17992038295898438 L 0.29577426416015623 0.17992038295898438 Q 0.30122526416015627 0.17992038295898438 0.30572826416015625 0.1821718829589844 Q 0.31023126416015623 0.18442338295898442 0.3136085141601562 0.1882746329589844 Q 0.3169857641601562 0.19212588295898442 0.3188225141601562 0.1968066329589844 Q 0.3206592641601562 0.20148738295898438 0.3206592641601562 0.2063458829589844 Q 0.3206592641601562 0.2123893829589844 0.31834851416015625 0.2177218829589844 Q 0.3160377641601563 0.2230543829589844 0.31183101416015624 0.22672788295898438 Q 0.30762426416015626 0.2304013829589844 0.30193626416015623 0.2315863829589844 L 0.32255526416015623 0.2640553829589844 L 0.31319376416015626 0.2640553829589844 L 0.29340426416015625 0.2330083829589844 L 0.26851926416015626 0.2330083829589844 L 0.26851926416015626 0.2640553829589844 L 0.26022426416015626 0.2640553829589844 M 0.26851926416015626 0.2256613829589844 L 0.2960112641601562 0.2256613829589844 Q 0.3009882641601562 0.2256613829589844 0.3046617641601562 0.2229358829589844 Q 0.3083352641601562 0.2202103829589844 0.31034976416015625 0.2157666329589844 Q 0.3123642641601562 0.2113228829589844 0.3123642641601562 0.2063458829589844 Q 0.3123642641601562 0.2012503829589844 0.31005351416015625 0.1969251329589844 Q 0.3077427641601562 0.1925998829589844 0.30389151416015625 0.1899336329589844 Q 0.3000402641601562 0.1872673829589844 0.29530026416015626 0.1872673829589844 L 0.26851926416015626 0.1872673829589844 L 0.26851926416015626 0.2256613829589844 M 0.36758763647460935 0.2640553829589844 L 0.36758763647460935 0.17992038295898438 L 0.4024266364746093 0.17992038295898438 Q 0.40787763647460934 0.17992038295898438 0.41243988647460933 0.1821718829589844 Q 0.4170021364746093 0.18442338295898442 0.4203201364746093 0.1882746329589844 Q 0.42363813647460935 0.19212588295898442 0.42553413647460936 0.1968066329589844 Q 0.4274301364746093 0.20148738295898438 0.4274301364746093 0.2063458829589844 Q 0.4274301364746093 0.2132188829589844 0.4244083864746093 0.2193216329589844 Q 0.42138663647460933 0.2254243829589844 0.41593563647460935 0.2292163829589844 Q 0.4104846364746093 0.2330083829589844 0.4031376364746093 0.2330083829589844 L 0.37588263647460934 0.2330083829589844 L 0.37588263647460934 0.2640553829589844 L 0.36758763647460935 0.2640553829589844 M 0.37588263647460934 0.2256613829589844 L 0.4027821364746093 0.2256613829589844 Q 0.4077591364746093 0.2256613829589844 0.4114326364746093 0.2229358829589844 Q 0.4151061364746093 0.2202103829589844 0.41712063647460934 0.21582588295898442 Q 0.4191351364746093 0.2114413829589844 0.4191351364746093 0.2063458829589844 Q 0.4191351364746093 0.2011318829589844 0.41676513647460933 0.19674738295898442 Q 0.41439513647460935 0.1923628829589844 0.4105438864746093 0.1898151329589844 Q 0.40669263647460935 0.1872673829589844 0.40207113647460935 0.1872673829589844 L 0.37588263647460934 0.1872673829589844 L 0.37588263647460934 0.2256613829589844 M 0.4977017358398437 0.2567083829589844 L 0.4977017358398437 0.2640553829589844 L 0.4411772358398437 0.2640553829589844 L 0.4411772358398437 0.17992038295898438 L 0.4966352358398437 0.17992038295898438 L 0.4966352358398437 0.1872673829589844 L 0.4494722358398437 0.1872673829589844 L 0.4494722358398437 0.2176033829589844 L 0.49059173583984367 0.2176033829589844 L 0.49059173583984367 0.2245948829589844 L 0.4494722358398437 0.2245948829589844 L 0.4494722358398437 0.2567083829589844 L 0.4977017358398437 0.2567083829589844 M 0.5132262773437499 0.2640553829589844 L 0.5132262773437499 0.17992038295898438 L 0.5487762773437499 0.17992038295898438 Q 0.5542272773437499 0.17992038295898438 0.5587302773437499 0.1821718829589844 Q 0.56323327734375 0.18442338295898442 0.56661052734375 0.1882746329589844 Q 0.56998777734375 0.19212588295898442 0.5718245273437499 0.1968066329589844 Q 0.5736612773437499 0.20148738295898438 0.5736612773437499 0.2063458829589844 Q 0.5736612773437499 0.2123893829589844 0.5713505273437499 0.2177218829589844 Q 0.5690397773437499 0.2230543829589844 0.5648330273437498 0.22672788295898438 Q 0.5606262773437499 0.2304013829589844 0.5549382773437499 0.2315863829589844 L 0.57555727734375 0.2640553829589844 L 0.5661957773437499 0.2640553829589844 L 0.5464062773437499 0.2330083829589844 L 0.5215212773437499 0.2330083829589844 L 0.5215212773437499 0.2640553829589844 L 0.5132262773437499 0.2640553829589844 M 0.5215212773437499 0.2256613829589844 L 0.5490132773437499 0.2256613829589844 Q 0.55399027734375 0.2256613829589844 0.55766377734375 0.2229358829589844 Q 0.5613372773437499 0.2202103829589844 0.5633517773437499 0.2157666329589844 Q 0.5653662773437499 0.2113228829589844 0.5653662773437499 0.2063458829589844 Q 0.5653662773437499 0.2012503829589844 0.5630555273437499 0.1969251329589844 Q 0.56074477734375 0.1925998829589844 0.5568935273437499 0.1899336329589844 Q 0.5530422773437499 0.1872673829589844 0.5483022773437499 0.1872673829589844 L 0.5215212773437499 0.1872673829589844 L 0.5215212773437499 0.2256613829589844 M 0.5904900710449218 0.2640553829589844 L 0.5904900710449218 0.17992038295898438 L 0.6457110710449218 0.17992038295898438 L 0.6457110710449218 0.1872673829589844 L 0.5987850710449217 0.1872673829589844 L 0.5987850710449217 0.2181958829589844 L 0.6383640710449218 0.2181958829589844 L 0.6383640710449218 0.2250688829589844 L 0.5987850710449217 0.2250688829589844 L 0.5987850710449217 0.2640553829589844 L 0.5904900710449218 0.2640553829589844 M 0.716691298095703 0.2567083829589844 L 0.716691298095703 0.2640553829589844 L 0.660166798095703 0.2640553829589844 L 0.660166798095703 0.17992038295898438 L 0.715624798095703 0.17992038295898438 L 0.715624798095703 0.1872673829589844 L 0.6684617980957029 0.1872673829589844 L 0.6684617980957029 0.2176033829589844 L 0.709581298095703 0.2176033829589844 L 0.709581298095703 0.2245948829589844 L 0.6684617980957029 0.2245948829589844 L 0.6684617980957029 0.2567083829589844 L 0.716691298095703 0.2567083829589844 M 0.7249900590820311 0.2213953829589844 Q 0.7249900590820311 0.2136928829589844 0.727656309082031 0.20628663295898442 Q 0.730322559082031 0.19888038295898441 0.7354180590820311 0.1927776329589844 Q 0.7405135590820311 0.1866748829589844 0.7479790590820311 0.1830606329589844 Q 0.755444559082031 0.1794463829589844 0.764924559082031 0.1794463829589844 Q 0.7761820590820311 0.1794463829589844 0.784180809082031 0.1846011329589844 Q 0.7921795590820311 0.1897558829589844 0.7959715590820311 0.1978138829589844 L 0.789454059082031 0.2018428829589844 Q 0.7867285590820311 0.1962733829589844 0.782581059082031 0.1930146329589844 Q 0.778433559082031 0.1897558829589844 0.773752809082031 0.1883338829589844 Q 0.769072059082031 0.18691188295898442 0.7644505590820311 0.18691188295898442 Q 0.756866559082031 0.18691188295898442 0.7510600590820311 0.1899336329589844 Q 0.7452535590820311 0.1929553829589844 0.7412838090820311 0.19799163295898442 Q 0.7373140590820311 0.20302788295898438 0.735299559082031 0.2092491329589844 Q 0.733285059082031 0.2154703829589844 0.733285059082031 0.2218693829589844 Q 0.733285059082031 0.2288608829589844 0.7356550590820311 0.2352598829589844 Q 0.7380250590820311 0.2416588829589844 0.7422910590820311 0.2465766329589844 Q 0.7465570590820311 0.2514943829589844 0.752304309082031 0.2543976329589844 Q 0.758051559082031 0.2573008829589844 0.764806059082031 0.2573008829589844 Q 0.7695460590820311 0.2573008829589844 0.774523059082031 0.2556418829589844 Q 0.779500059082031 0.2539828829589844 0.7838253090820311 0.2505463829589844 Q 0.788150559082031 0.2471098829589844 0.790757559082031 0.2416588829589844 L 0.7976305590820311 0.24521388295898439 Q 0.795023559082031 0.2514943829589844 0.7895725590820311 0.2558788829589844 Q 0.7841215590820311 0.2602633829589844 0.777426309082031 0.2625148829589844 Q 0.7707310590820311 0.2647663829589844 0.7643320590820311 0.2647663829589844 Q 0.755681559082031 0.2647663829589844 0.7484530590820311 0.2610336329589844 Q 0.7412245590820311 0.2573008829589844 0.7359513090820311 0.2510796329589844 Q 0.7306780590820311 0.2448583829589844 0.727834059082031 0.2370966329589844 Q 0.7249900590820311 0.2293348829589844 0.7249900590820311 0.2213953829589844 M 0.8712143144531248 0.1872673829589844 L 0.8412338144531248 0.1872673829589844 L 0.8412338144531248 0.2640553829589844 L 0.8329388144531248 0.2640553829589844 L 0.8329388144531248 0.1872673829589844 L 0.8029583144531248 0.1872673829589844 L 0.8029583144531248 0.17992038295898438 L 0.8712143144531248 0.17992038295898438 L 0.8712143144531248 0.1872673829589844 M 0.9103191408691405 0.2640553829589844 L 0.9103191408691405 0.17992038295898438 L 0.9186141408691404 0.17992038295898438 L 0.9186141408691404 0.2567083829589844 L 0.9671991408691405 0.2567083829589844 L 0.9671991408691405 0.2640553829589844 L 0.9103191408691405 0.2640553829589844 M 1.0053570666503904 0.17992038295898438 L 1.0123485666503904 0.17992038295898438 L 1.0473060666503904 0.2640553829589844 L 1.0385370666503904 0.2640553829589844 L 1.0276350666503904 0.2377483829589844 L 0.9898335666503905 0.2377483829589844 L 0.9790500666503904 0.2640553829589844 L 0.9701625666503905 0.2640553829589844 L 1.0053570666503904 0.17992038295898438 M 1.0257390666503905 0.2312308829589844 L 1.0087935666503904 0.1896373829589844 L 0.9916110666503904 0.2312308829589844 L 1.0257390666503905 0.2312308829589844 M 1.0899656037597656 0.2646478829589844 Q 1.0800116037597656 0.2646478829589844 1.0731386037597654 0.2610928829589844 Q 1.0662656037597655 0.2575378829589844 1.0622366037597655 0.2515536329589844 Q 1.0582076037597654 0.2455693829589844 1.0563708537597656 0.2379853829589844 Q 1.0545341037597655 0.2304013829589844 1.0545341037597655 0.2223433829589844 L 1.0545341037597655 0.17992038295898438 L 1.0627106037597656 0.17992038295898438 L 1.0627106037597656 0.2223433829589844 Q 1.0627106037597656 0.2288608829589844 1.0640733537597655 0.2351413829589844 Q 1.0654361037597655 0.2414218829589844 1.0685171037597656 0.2463988829589844 Q 1.0715981037597655 0.2513758829589844 1.0768121037597655 0.2542791329589844 Q 1.0820261037597656 0.2571823829589844 1.0898471037597655 0.2571823829589844 Q 1.0979051037597656 0.2571823829589844 1.1031783537597655 0.2541606329589844 Q 1.1084516037597656 0.2511388829589844 1.1114733537597654 0.2461618829589844 Q 1.1144951037597655 0.2411848829589844 1.1157986037597656 0.2349636329589844 Q 1.1171021037597655 0.2287423829589844 1.1171021037597655 0.2223433829589844 L 1.1171021037597655 0.17992038295898438 L 1.1253971037597654 0.17992038295898438 L 1.1253971037597654 0.2223433829589844 Q 1.1253971037597654 0.2307568829589844 1.1235011037597655 0.2384593829589844 Q 1.1216051037597654 0.2461618829589844 1.1173983537597656 0.2519683829589844 Q 1.1131916037597656 0.2577748829589844 1.1064371037597656 0.2612113829589844 Q 1.0996826037597656 0.2646478829589844 1.0899656037597656 0.2646478829589844 M 1.1533636823730467 0.19520688295898442 L 1.1533636823730467 0.2640553829589844 L 1.1450686823730467 0.2640553829589844 L 1.1450686823730467 0.17992038295898438 L 1.1519416823730466 0.17992038295898438 L 1.2071626823730468 0.2500723829589844 L 1.2071626823730468 0.1800388829589844 L 1.2154576823730467 0.1800388829589844 L 1.2154576823730467 0.2640553829589844 L 1.2077551823730466 0.2640553829589844 L 1.1533636823730467 0.19520688295898442 M 1.2308594421386716 0.2213953829589844 Q 1.2308594421386716 0.2136928829589844 1.2335256921386717 0.20628663295898442 Q 1.2361919421386716 0.19888038295898441 1.2412874421386715 0.1927776329589844 Q 1.2463829421386716 0.1866748829589844 1.2538484421386715 0.1830606329589844 Q 1.2613139421386717 0.1794463829589844 1.2707939421386716 0.1794463829589844 Q 1.2820514421386715 0.1794463829589844 1.2900501921386716 0.1846011329589844 Q 1.2980489421386716 0.1897558829589844 1.3018409421386716 0.1978138829589844 L 1.2953234421386717 0.2018428829589844 Q 1.2925979421386715 0.1962733829589844 1.2884504421386715 0.1930146329589844 Q 1.2843029421386716 0.1897558829589844 1.2796221921386717 0.1883338829589844 Q 1.2749414421386716 0.18691188295898442 1.2703199421386715 0.18691188295898442 Q 1.2627359421386717 0.18691188295898442 1.2569294421386716 0.1899336329589844 Q 1.2511229421386716 0.1929553829589844 1.2471531921386716 0.19799163295898442 Q 1.2431834421386716 0.20302788295898438 1.2411689421386716 0.2092491329589844 Q 1.2391544421386715 0.2154703829589844 1.2391544421386715 0.2218693829589844 Q 1.2391544421386715 0.2288608829589844 1.2415244421386715 0.2352598829589844 Q 1.2438944421386715 0.2416588829589844 1.2481604421386716 0.2465766329589844 Q 1.2524264421386715 0.2514943829589844 1.2581736921386717 0.2543976329589844 Q 1.2639209421386717 0.2573008829589844 1.2706754421386717 0.2573008829589844 Q 1.2754154421386716 0.2573008829589844 1.2803924421386716 0.2556418829589844 Q 1.2853694421386717 0.2539828829589844 1.2896946921386716 0.2505463829589844 Q 1.2940199421386716 0.2471098829589844 1.2966269421386716 0.2416588829589844 L 1.3034999421386715 0.24521388295898439 Q 1.3008929421386717 0.2514943829589844 1.2954419421386716 0.2558788829589844 Q 1.2899909421386715 0.2602633829589844 1.2832956921386716 0.2625148829589844 Q 1.2766004421386716 0.2647663829589844 1.2702014421386716 0.2647663829589844 Q 1.2615509421386717 0.2647663829589844 1.2543224421386716 0.2610336329589844 Q 1.2470939421386715 0.2573008829589844 1.2418206921386716 0.2510796329589844 Q 1.2365474421386715 0.2448583829589844 1.2337034421386717 0.2370966329589844 Q 1.2308594421386716 0.2293348829589844 1.2308594421386716 0.2213953829589844 M 1.383958375488281 0.17992038295898438 L 1.383958375488281 0.2640553829589844 L 1.375781875488281 0.2640553829589844 L 1.375781875488281 0.2247133829589844 L 1.325893375488281 0.2247133829589844 L 1.325893375488281 0.2640553829589844 L 1.317598375488281 0.2640553829589844 L 1.317598375488281 0.17992038295898438 L 1.325893375488281 0.17992038295898438 L 1.325893375488281 0.21736638295898442 L 1.375781875488281 0.21736638295898442 L 1.375781875488281 0.17992038295898438 L 1.383958375488281 0.17992038295898438 M 1.4049300402832028 0.2640553829589844 L 1.4049300402832028 0.17992038295898438 L 1.4397690402832029 0.17992038295898438 Q 1.4452200402832027 0.17992038295898438 1.4497822902832027 0.1821718829589844 Q 1.4543445402832027 0.18442338295898442 1.4576625402832029 0.1882746329589844 Q 1.4609805402832028 0.19212588295898442 1.4628765402832027 0.1968066329589844 Q 1.4647725402832028 0.20148738295898438 1.4647725402832028 0.2063458829589844 Q 1.4647725402832028 0.2132188829589844 1.4617507902832028 0.2193216329589844 Q 1.4587290402832027 0.2254243829589844 1.4532780402832028 0.2292163829589844 Q 1.4478270402832027 0.2330083829589844 1.4404800402832028 0.2330083829589844 L 1.4132250402832027 0.2330083829589844 L 1.4132250402832027 0.2640553829589844 L 1.4049300402832028 0.2640553829589844 M 1.4132250402832027 0.2256613829589844 L 1.4401245402832028 0.2256613829589844 Q 1.4451015402832028 0.2256613829589844 1.4487750402832027 0.2229358829589844 Q 1.4524485402832028 0.2202103829589844 1.4544630402832028 0.21582588295898442 Q 1.4564775402832029 0.2114413829589844 1.4564775402832029 0.2063458829589844 Q 1.4564775402832029 0.2011318829589844 1.4541075402832027 0.19674738295898442 Q 1.4517375402832027 0.1923628829589844 1.4478862902832028 0.1898151329589844 Q 1.4440350402832027 0.1872673829589844 1.4394135402832027 0.1872673829589844 L 1.4132250402832027 0.1872673829589844 L 1.4132250402832027 0.2256613829589844 M 1.4987818088378904 0.17992038295898438 L 1.5057733088378904 0.17992038295898438 L 1.5407308088378904 0.2640553829589844 L 1.5319618088378903 0.2640553829589844 L 1.5210598088378904 0.2377483829589844 L 1.4832583088378903 0.2377483829589844 L 1.4724748088378903 0.2640553829589844 L 1.4635873088378903 0.2640553829589844 L 1.4987818088378904 0.17992038295898438 M 1.5191638088378903 0.2312308829589844 L 1.5022183088378902 0.1896373829589844 L 1.4850358088378903 0.2312308829589844 L 1.5191638088378903 0.2312308829589844 M 1.5527023176269528 0.2640553829589844 L 1.5527023176269528 0.17992038295898438 L 1.5812608176269527 0.17992038295898438 Q 1.5946513176269528 0.17992038295898438 1.6035980676269528 0.1855491329589844 Q 1.6125448176269528 0.1911778829589844 1.6170478176269527 0.2007171329589844 Q 1.6215508176269529 0.2102563829589844 1.6215508176269529 0.2218693829589844 Q 1.6215508176269529 0.2346673829589844 1.6166330676269527 0.2441473829589844 Q 1.6117153176269527 0.2536273829589844 1.6026500676269528 0.2588413829589844 Q 1.5935848176269527 0.2640553829589844 1.5812608176269527 0.2640553829589844 L 1.5527023176269528 0.2640553829589844 M 1.6132558176269527 0.2218693829589844 Q 1.6132558176269527 0.2117968829589844 1.6095230676269527 0.2039758829589844 Q 1.6057903176269528 0.1961548829589844 1.5986803176269528 0.1917111329589844 Q 1.5915703176269527 0.1872673829589844 1.5812608176269527 0.1872673829589844 L 1.5609973176269527 0.1872673829589844 L 1.5609973176269527 0.2567083829589844 L 1.5812608176269527 0.2567083829589844 Q 1.5916888176269528 0.2567083829589844 1.5987988176269528 0.2520868829589844 Q 1.6059088176269527 0.2474653829589844 1.6095823176269528 0.2395851329589844 Q 1.6132558176269527 0.2317048829589844 1.6132558176269527 0.2218693829589844" fill="#c84449" fill-rule="nonzero"></path></g><g clip-path="url(#SvgjsClipPath1154)"><path d=" M -0.5221606783519761 -0.12155264769649585 L -0.015000000000000013 -0.12155264769649585 L -0.015000000000000013 0.3856080306554802 L -0.5221606783519761 0.3856080306554802 Z" fill="#c84449" transform="matrix(1,0,0,1,0,0)" fill-rule="nonzero" mask="url(#maskedIcon-a4d9be91-71c5-4f63-ac91-0ffb3b039bbe)"></path></g></g><defs><clipPath id="SvgjsClipPath1154"><path d=" M -0.5221606783519761 -0.12155264769649585 h 0.5071606783519761 v 0.5071606783519761 h -0.5071606783519761 Z"></path></clipPath><mask id="maskedIcon-a4d9be91-71c5-4f63-ac91-0ffb3b039bbe"><path d=" M -0.5221606783519761 -0.12155264769649585 L -0.015000000000000013 -0.12155264769649585 L -0.015000000000000013 0.3856080306554802 L -0.5221606783519761 0.3856080306554802 Z" fill="#ffffff" transform="matrix(1,0,0,1,0,0)" fill-rule="nonzero"></path><path d=" M -0.2585399686392468 0.29201118533988435 L -0.17281997081749678 0.24217070837052893 L -0.25714481711504833 0.19349355699541124 L -0.1739077694119281 0.14509491143207906 L -0.1739077694119281 0.021632393429380364 L -0.2602335567112906 -0.027981502540556313 C -0.2604087373913968 0.042200388550223816 -0.2599031260871383 0.12194483700535991 -0.2591153375197151 0.19235802953304662 L -0.27758536042371856 0.18170714908120503 L -0.2791546436419148 0.062418022310855026 L -0.3643386095622624 0.09672406400061992 L -0.3640139483617064 0.23164832871696875 C -0.3223655284060564 0.25550646876687133 -0.300204123386523 0.2681556677552528 -0.2585383951600841 0.2920395079648116 Z" fill="NA" transform="matrix(1,0,0,1,0,0)" fill-rule="nonzero"></path></mask></defs></svg>