<svg width="158" height="44" viewBox="0 0 158 44" fill="none" xmlns="http://www.w3.org/2000/svg">
<g clip-path="url(#clip0_29_32)">
<rect width="158" height="44" fill="white"/>
<path d="M50.1196 27L57.7036 8.928H57.8476L65.4076 27H62.7436L57.0796 12.576L58.7356 11.496L52.3996 27H50.1196ZM54.5596 20.424H61.0156L61.7836 22.44H53.8876L54.5596 20.424ZM69.2517 10.2H72.1077V27H69.2517V10.2ZM78.8131 27V24.504H87.2851V27H78.8131ZM78.8131 12.696V10.2H87.2851V12.696H78.8131ZM78.8131 19.224V16.776H86.8051V19.224H78.8131ZM77.0611 10.2H79.8451V27H77.0611V10.2ZM94.06 18.6C94.06 19.784 94.324 20.824 94.852 21.72C95.396 22.616 96.1 23.312 96.964 23.808C97.844 24.288 98.796 24.528 99.82 24.528C100.62 24.528 101.34 24.424 101.98 24.216C102.62 24.008 103.196 23.728 103.708 23.376C104.236 23.008 104.692 22.6 105.076 22.152V25.512C104.372 26.088 103.612 26.528 102.796 26.832C101.98 27.136 100.956 27.288 99.724 27.288C98.492 27.288 97.34 27.08 96.268 26.664C95.212 26.248 94.292 25.648 93.508 24.864C92.724 24.08 92.108 23.16 91.66 22.104C91.228 21.032 91.012 19.864 91.012 18.6C91.012 17.336 91.228 16.176 91.66 15.12C92.108 14.048 92.724 13.12 93.508 12.336C94.292 11.552 95.212 10.952 96.268 10.536C97.34 10.12 98.492 9.912 99.724 9.912C100.956 9.912 101.98 10.064 102.796 10.368C103.612 10.672 104.372 11.112 105.076 11.688V15.048C104.692 14.6 104.236 14.2 103.708 13.848C103.196 13.48 102.62 13.192 101.98 12.984C101.34 12.776 100.62 12.672 99.82 12.672C98.796 12.672 97.844 12.92 96.964 13.416C96.1 13.896 95.396 14.584 94.852 15.48C94.324 16.36 94.06 17.4 94.06 18.6ZM109.766 10.2H112.598V27H109.766V10.2ZM111.446 12.696V10.2H114.83C116.046 10.2 117.102 10.416 117.998 10.848C118.91 11.264 119.614 11.864 120.11 12.648C120.606 13.416 120.854 14.336 120.854 15.408C120.854 16.48 120.606 17.408 120.11 18.192C119.614 18.976 118.91 19.584 117.998 20.016C117.102 20.432 116.046 20.64 114.83 20.64H111.446V18.144H114.83C115.806 18.144 116.59 17.912 117.182 17.448C117.774 16.984 118.07 16.304 118.07 15.408C118.07 14.512 117.774 13.84 117.182 13.392C116.59 12.928 115.806 12.696 114.83 12.696H111.446ZM124.745 10.2H128.801V23.52H135.545V27H124.745V10.2Z" fill="url(#paint0_linear_29_32)"/>
<rect x="7.87683" y="1.85266" width="36.1408" height="39.3684" fill="#DD0003"/>
<path d="M25.4839 27.3263V4.63159L34.7507 9.30404V22.9876L25.4839 27.3263Z" fill="white" stroke="white"/>
<path d="M14.827 31.5058V18.1675L23.822 10.6526V27.8541L32.8973 34.1965L25.2522 38.9053L14.827 31.5058Z" fill="white" stroke="white"/>
<path d="M49.7766 30.088H50.3135L51.8224 32.5042H51.8671L53.376 30.088H53.9129L52.0759 32.9741V35.179H51.6136V32.9741L49.7766 30.088ZM58.7205 32.6335C58.7205 33.1638 58.626 33.6253 58.4371 34.0181C58.2482 34.4092 57.988 34.7125 57.6565 34.9279C57.3268 35.1417 56.9473 35.2486 56.518 35.2486C56.0888 35.2486 55.7085 35.1417 55.3771 34.9279C55.0473 34.7125 54.7879 34.4092 54.599 34.0181C54.4117 33.6253 54.3181 33.1638 54.3181 32.6335C54.3181 32.1032 54.4117 31.6425 54.599 31.2514C54.7879 30.8586 55.0481 30.5554 55.3795 30.3416C55.711 30.1262 56.0905 30.0184 56.518 30.0184C56.9473 30.0184 57.3268 30.1262 57.6565 30.3416C57.988 30.5554 58.2482 30.8586 58.4371 31.2514C58.626 31.6425 58.7205 32.1032 58.7205 32.6335ZM58.268 32.6335C58.268 32.1778 58.1918 31.7875 58.0393 31.4627C57.8869 31.1362 57.6789 30.8868 57.4154 30.7145C57.1519 30.5421 56.8528 30.4559 56.518 30.4559C56.1849 30.4559 55.8866 30.5421 55.6232 30.7145C55.3597 30.8868 55.1509 31.1354 54.9967 31.4602C54.8443 31.785 54.768 32.1761 54.768 32.6335C54.768 33.0892 54.8443 33.4795 54.9967 33.8043C55.1492 34.1291 55.3572 34.3785 55.6207 34.5525C55.8842 34.7249 56.1833 34.8111 56.518 34.8111C56.8528 34.8111 57.1519 34.7249 57.4154 34.5525C57.6806 34.3802 57.8894 34.1316 58.0418 33.8068C58.1943 33.4803 58.2697 33.0892 58.268 32.6335ZM63.2378 30.088H63.7026V33.4588C63.7026 33.8051 63.6214 34.115 63.459 34.3885C63.2966 34.6603 63.0704 34.8749 62.7804 35.0323C62.492 35.1881 62.1564 35.266 61.7736 35.266C61.3925 35.266 61.0569 35.1872 60.7669 35.0298C60.4769 34.8724 60.2507 34.6578 60.0883 34.386C59.9259 34.1142 59.8447 33.8051 59.8447 33.4588V30.088H60.3095V33.4265C60.3095 33.6966 60.37 33.9377 60.491 34.1498C60.6119 34.3603 60.7818 34.526 61.0005 34.647C61.221 34.768 61.4787 34.8285 61.7736 34.8285C62.0686 34.8285 62.3263 34.768 62.5467 34.647C62.7671 34.526 62.937 34.3603 63.0563 34.1498C63.1773 33.9377 63.2378 33.6966 63.2378 33.4265V30.088ZM65.0536 35.179V30.088H66.6967C67.058 30.088 67.3596 30.1535 67.6016 30.2844C67.8452 30.4137 68.0283 30.5935 68.1509 30.8238C68.2752 31.0525 68.3374 31.3152 68.3374 31.6118C68.3374 31.9085 68.2752 32.1703 68.1509 32.3973C68.0283 32.6244 67.846 32.8017 67.6041 32.9293C67.3621 33.0569 67.0622 33.1207 66.7042 33.1207H65.3047V32.6956H66.6918C66.9569 32.6956 67.1773 32.6517 67.353 32.5639C67.5303 32.4761 67.6621 32.3509 67.7482 32.1885C67.8361 32.0261 67.88 31.8339 67.88 31.6118C67.88 31.3898 67.8361 31.1959 67.7482 31.0302C67.6604 30.8628 67.5278 30.7335 67.3505 30.6424C67.1749 30.5512 66.9528 30.5057 66.6843 30.5057H65.5185V35.179H65.0536ZM67.2983 32.8821L68.5512 35.179H68.0142L66.7738 32.8821H67.2983ZM71.4384 35.179V30.088H73.0815C73.4428 30.088 73.7444 30.1576 73.9863 30.2969C74.23 30.4344 74.4131 30.6217 74.5357 30.8586C74.66 31.0956 74.7221 31.3624 74.7221 31.6591C74.7221 31.9557 74.6608 32.2233 74.5382 32.462C74.4156 32.699 74.2333 32.8871 73.9913 33.0263C73.7494 33.1638 73.4486 33.2326 73.089 33.2326H71.7964V32.815H73.0765C73.3434 32.815 73.5646 32.7652 73.7403 32.6658C73.9159 32.5647 74.0468 32.4272 74.133 32.2532C74.2208 32.0792 74.2648 31.8811 74.2648 31.6591C74.2648 31.437 74.2208 31.239 74.133 31.065C74.0468 30.891 73.9151 30.7542 73.7378 30.6548C73.5621 30.5554 73.3392 30.5057 73.0691 30.5057H71.9032V35.179H71.4384ZM75.8134 35.179V30.088H78.7665V30.5057H76.2782V32.4222H78.6099V32.8398H76.2782V34.7613H78.8162V35.179H75.8134ZM79.9697 35.179V30.088H81.6128C81.974 30.088 82.2756 30.1535 82.5176 30.2844C82.7612 30.4137 82.9443 30.5935 83.067 30.8238C83.1912 31.0525 83.2534 31.3152 83.2534 31.6118C83.2534 31.9085 83.1912 32.1703 83.067 32.3973C82.9443 32.6244 82.762 32.8017 82.5201 32.9293C82.2781 33.0569 81.9782 33.1207 81.6202 33.1207H80.2207V32.6956H81.6078C81.8729 32.6956 82.0934 32.6517 82.269 32.5639C82.4463 32.4761 82.5781 32.3509 82.6643 32.1885C82.7521 32.0261 82.796 31.8339 82.796 31.6118C82.796 31.3898 82.7521 31.1959 82.6643 31.0302C82.5764 30.8628 82.4438 30.7335 82.2665 30.6424C82.0909 30.5512 81.8688 30.5057 81.6003 30.5057H80.4345V35.179H79.9697ZM82.2143 32.8821L83.4672 35.179H82.9302L81.6898 32.8821H82.2143ZM84.3857 35.179V30.088H87.3313V30.5057H84.8505V32.4222H87.1002V32.8398H84.8505V35.179H84.3857ZM88.4872 35.179V30.088H91.4404V30.5057H88.9521V32.4222H91.2838V32.8398H88.9521V34.7613H91.4901V35.179H88.4872ZM96.6307 31.679H96.1634C96.1286 31.5049 96.0656 31.3442 95.9744 31.1967C95.885 31.0476 95.7723 30.9175 95.6364 30.8064C95.5005 30.6954 95.3464 30.6092 95.174 30.5479C95.0017 30.4866 94.8152 30.4559 94.6147 30.4559C94.2932 30.4559 93.9999 30.5396 93.7347 30.707C93.4713 30.8744 93.26 31.1205 93.1009 31.4453C92.9434 31.7684 92.8647 32.1645 92.8647 32.6335C92.8647 33.1058 92.9434 33.5035 93.1009 33.8267C93.26 34.1498 93.4713 34.3951 93.7347 34.5625C93.9999 34.7282 94.2932 34.8111 94.6147 34.8111C94.8152 34.8111 95.0017 34.7804 95.174 34.7191C95.3464 34.6578 95.5005 34.5724 95.6364 34.463C95.7723 34.352 95.885 34.2219 95.9744 34.0728C96.0656 33.9236 96.1286 33.7621 96.1634 33.588H96.6307C96.5893 33.8217 96.5114 34.0396 96.397 34.2418C96.2843 34.4423 96.1402 34.618 95.9645 34.7688C95.7905 34.9196 95.59 35.0373 95.3629 35.1218C95.1359 35.2063 94.8865 35.2486 94.6147 35.2486C94.1872 35.2486 93.8077 35.1417 93.4762 34.9279C93.1448 34.7125 92.8846 34.4092 92.6957 34.0181C92.5084 33.627 92.4148 33.1655 92.4148 32.6335C92.4148 32.1015 92.5084 31.64 92.6957 31.2489C92.8846 30.8578 93.1448 30.5554 93.4762 30.3416C93.8077 30.1262 94.1872 30.0184 94.6147 30.0184C94.8865 30.0184 95.1359 30.0607 95.3629 30.1452C95.59 30.2281 95.7905 30.3457 95.9645 30.4982C96.1402 30.649 96.2843 30.8247 96.397 31.0252C96.5114 31.2257 96.5893 31.4436 96.6307 31.679ZM97.4143 30.5057V30.088H101.106V30.5057H99.4925V35.179H99.0276V30.5057H97.4143ZM104.121 35.179V30.088H104.586V34.7613H107.012V35.179H104.121ZM108.387 35.179H107.9L109.752 30.088H110.249L112.101 35.179H111.614L110.018 30.6921H109.983L108.387 35.179ZM108.738 33.2276H111.263V33.6452H108.738V33.2276ZM116.367 30.088H116.832V33.4588C116.832 33.8051 116.75 34.115 116.588 34.3885C116.426 34.6603 116.199 34.8749 115.909 35.0323C115.621 35.1881 115.285 35.266 114.903 35.266C114.521 35.266 114.186 35.1872 113.896 35.0298C113.606 34.8724 113.38 34.6578 113.217 34.386C113.055 34.1142 112.974 33.8051 112.974 33.4588V30.088H113.438V33.4265C113.438 33.6966 113.499 33.9377 113.62 34.1498C113.741 34.3603 113.911 34.526 114.129 34.647C114.35 34.768 114.608 34.8285 114.903 34.8285C115.198 34.8285 115.455 34.768 115.676 34.647C115.896 34.526 116.066 34.3603 116.185 34.1498C116.306 33.9377 116.367 33.6966 116.367 33.4265V30.088ZM122.147 30.088V35.179H121.695L118.687 30.9158H118.647V35.179H118.183V30.088H118.632L121.65 34.3562H121.69V30.088H122.147ZM127.488 31.679H127.021C126.986 31.5049 126.923 31.3442 126.832 31.1967C126.742 31.0476 126.63 30.9175 126.494 30.8064C126.358 30.6954 126.204 30.6092 126.031 30.5479C125.859 30.4866 125.673 30.4559 125.472 30.4559C125.151 30.4559 124.857 30.5396 124.592 30.707C124.329 30.8744 124.117 31.1205 123.958 31.4453C123.801 31.7684 123.722 32.1645 123.722 32.6335C123.722 33.1058 123.801 33.5035 123.958 33.8267C124.117 34.1498 124.329 34.3951 124.592 34.5625C124.857 34.7282 125.151 34.8111 125.472 34.8111C125.673 34.8111 125.859 34.7804 126.031 34.7191C126.204 34.6578 126.358 34.5724 126.494 34.463C126.63 34.352 126.742 34.2219 126.832 34.0728C126.923 33.9236 126.986 33.7621 127.021 33.588H127.488C127.447 33.8217 127.369 34.0396 127.254 34.2418C127.142 34.4423 126.998 34.618 126.822 34.7688C126.648 34.9196 126.447 35.0373 126.22 35.1218C125.993 35.2063 125.744 35.2486 125.472 35.2486C125.045 35.2486 124.665 35.1417 124.334 34.9279C124.002 34.7125 123.742 34.4092 123.553 34.0181C123.366 33.627 123.272 33.1655 123.272 32.6335C123.272 32.1015 123.366 31.64 123.553 31.2489C123.742 30.8578 124.002 30.5554 124.334 30.3416C124.665 30.1262 125.045 30.0184 125.472 30.0184C125.744 30.0184 125.993 30.0607 126.22 30.1452C126.447 30.2281 126.648 30.3457 126.822 30.4982C126.998 30.649 127.142 30.8247 127.254 31.0252C127.369 31.2257 127.447 31.4436 127.488 31.679ZM128.58 35.179V30.088H129.045V32.4222H131.933V30.088H132.398V35.179H131.933V32.8398H129.045V35.179H128.58ZM133.748 35.179V30.088H135.391C135.752 30.088 136.054 30.1576 136.296 30.2969C136.54 30.4344 136.723 30.6217 136.845 30.8586C136.97 31.0956 137.032 31.3624 137.032 31.6591C137.032 31.9557 136.97 32.2233 136.848 32.462C136.725 32.699 136.543 32.8871 136.301 33.0263C136.059 33.1638 135.758 33.2326 135.399 33.2326H134.106V32.815H135.386C135.653 32.815 135.874 32.7652 136.05 32.6658C136.225 32.5647 136.356 32.4272 136.443 32.2532C136.53 32.0792 136.574 31.8811 136.574 31.6591C136.574 31.437 136.53 31.239 136.443 31.065C136.356 30.891 136.225 30.7542 136.047 30.6548C135.872 30.5554 135.649 30.5057 135.379 30.5057H134.213V35.179H133.748ZM137.611 35.179H137.124L138.976 30.088H139.473L141.325 35.179H140.837L139.242 30.6921H139.207L137.611 35.179ZM137.961 33.2276H140.487V33.6452H137.961V33.2276ZM143.689 35.179H142.197V30.088H143.778C144.264 30.088 144.679 30.1891 145.024 30.3913C145.37 30.5935 145.635 30.8835 145.819 31.2613C146.003 31.6392 146.095 32.0924 146.095 32.6211C146.095 33.1547 146 33.6129 145.812 33.9957C145.624 34.3769 145.351 34.6694 144.991 34.8732C144.633 35.077 144.199 35.179 143.689 35.179ZM142.662 34.7613H143.661C144.099 34.7613 144.465 34.6752 144.76 34.5028C145.055 34.3305 145.276 34.0844 145.424 33.7645C145.571 33.4447 145.645 33.0635 145.645 32.6211C145.643 32.1819 145.57 31.8041 145.426 31.4875C145.284 31.171 145.072 30.9282 144.79 30.7592C144.51 30.5902 144.163 30.5057 143.751 30.5057H142.662V34.7613Z" fill="#C00000"/>
</g>
<defs>
<linearGradient id="paint0_linear_29_32" x1="68.3969" y1="18.4526" x2="128.744" y2="18.6177" gradientUnits="userSpaceOnUse">
<stop stop-color="#003471"/>
<stop offset="1" stop-color="#034CA1"/>
</linearGradient>
<clipPath id="clip0_29_32">
<rect width="158" height="44" fill="white"/>
</clipPath>
</defs>
</svg>
