<svg width="44" height="44" viewBox="0 0 44 44" fill="none" xmlns="http://www.w3.org/2000/svg">
<rect width="44" height="44" fill="white"/>
<path d="M33.4434 19.0897C34.0039 20.0619 34.4209 21.0747 34.6943 22.1279C34.9678 23.1811 35.1113 24.2681 35.125 25.3889V27.4751L22 33.9769L8.875 27.4751C8.875 26.6649 8.88184 25.9088 8.89551 25.2066C8.90918 24.5044 8.9707 23.8225 9.08008 23.1609C9.18945 22.4992 9.35351 21.8376 9.57226 21.1759C9.79101 20.5143 10.1191 19.8189 10.5566 19.0897L6.25 16.963V28.8524C6.64648 28.9875 7.00195 29.1765 7.31641 29.4196C7.63086 29.6626 7.91113 29.9462 8.15723 30.2703C8.40332 30.5943 8.58105 30.9454 8.69043 31.3235C8.7998 31.7016 8.86133 32.0999 8.875 32.5185V39H1V32.5185C1 32.1134 1.06152 31.7218 1.18457 31.3438C1.30762 30.9657 1.48535 30.6078 1.71777 30.2703C1.9502 29.9327 2.22363 29.6491 2.53809 29.4196C2.85254 29.19 3.21484 29.001 3.625 28.8524V15.6667L1 14.3704L22 4L43 14.3704L33.4434 19.0897ZM6.25 32.5185C6.25 32.1674 6.12012 31.8636 5.86035 31.6071C5.60059 31.3505 5.29297 31.2222 4.9375 31.2222C4.58203 31.2222 4.27441 31.3505 4.01465 31.6071C3.75488 31.8636 3.625 32.1674 3.625 32.5185V36.4074H6.25V32.5185ZM6.86523 14.3704L22 21.8443L37.1348 14.3704L22 6.89641L6.86523 14.3704ZM32.5 25.875C32.5 24.8353 32.3975 23.8698 32.1924 22.9786C31.9873 22.0874 31.625 21.1759 31.1055 20.2442L22 24.7407L12.8945 20.2442C12.4434 21.0274 12.1016 21.8511 11.8691 22.7153C11.6367 23.5795 11.5137 24.4707 11.5 25.3889V25.875L22 31.0602L32.5 25.875Z" fill="#DD0003"/>
<path d="M21.5 9L23.2527 12.0297L27 12.5157L24.25 14.7273L24.9568 18L21.5 16.1591L18.0433 18L18.75 14.7273L16 12.5157L19.85 12.0297L21.5 9Z" fill="#034CA1"/>
</svg>
