<svg width="44" height="44" viewBox="0 0 44 44" fill="none" xmlns="http://www.w3.org/2000/svg">
<rect width="44" height="44" fill="white"/>
<path d="M18.4378 9.03888L15.1642 12.3505C14.1841 12.6227 13.2744 13.1217 12.5056 13.8087L10.8016 15.3446C10.1481 15.9343 9.29609 16.2584 8.41844 16.2584H7.15V24.5536C8.45687 24.5925 9.69969 25.1304 10.6286 26.0701L12.9092 28.3773L13.3577 28.8309L15.0873 30.5807C15.4845 30.9825 16.138 30.9825 16.5352 30.5807C16.6441 30.4705 16.7273 30.3409 16.7722 30.2048C16.9516 29.7058 17.368 29.3299 17.8805 29.2133C18.393 29.0966 18.9311 29.2521 19.3027 29.6345L19.9945 30.3215C20.7377 31.0732 21.942 31.0732 22.6787 30.3215C23.0247 29.9715 23.2105 29.5243 23.2297 29.0642C23.2553 28.4939 23.5884 27.9884 24.1009 27.7421C24.6134 27.4959 25.2092 27.5477 25.6641 27.8782C26.2663 28.3124 27.1055 28.2541 27.6436 27.7097C28.2458 27.1006 28.2458 26.1155 27.6436 25.5128L22.7877 20.6004L20.4942 22.7391C18.7453 24.3722 16.0611 24.3981 14.2802 22.7974C12.2494 20.9698 12.2045 17.7813 14.1777 15.8955L18.6684 11.6052C20.4237 9.93322 22.7428 9 25.158 9C27.4706 9 29.7064 9.86193 31.4297 11.4108L33.358 13.1476H40.975C41.5387 13.1476 42 13.6142 42 14.1845V27.6644C42 28.8115 41.0839 29.7382 39.95 29.7382H37.9C37.1441 29.7382 36.4778 29.3234 36.1255 28.7013H30.6866C30.4688 29.1355 30.1805 29.5503 29.8217 29.9132C28.7262 31.0214 27.208 31.4556 25.7858 31.2158C25.5552 31.6889 25.2412 32.1296 24.8505 32.5249C23.1016 34.2941 20.3661 34.4691 18.4186 33.0498C16.8106 34.3978 14.4147 34.3136 12.9092 32.7841L11.1859 31.0343L10.7375 30.5807L8.45687 28.2736C8.10453 27.9171 7.64328 27.7097 7.15 27.6709C7.15 28.8115 6.2275 29.7382 5.1 29.7382H3.05C1.91609 29.7382 1 28.8115 1 27.6644V14.1845C1 13.6142 1.46125 13.1476 2.025 13.1476H8.41844C8.54656 13.1476 8.66828 13.1023 8.75797 13.018L10.4556 11.4886C12.243 9.88785 14.5428 9 16.9323 9H17.5922C17.8741 9 18.1623 9.01296 18.4378 9.03888ZM35.85 25.5841V16.2584H32.775C32.397 16.2584 32.0319 16.1158 31.7564 15.863L29.3925 13.7374C28.2266 12.6875 26.7211 12.1107 25.158 12.1107C23.5308 12.1107 21.9677 12.7394 20.7825 13.867L16.2917 18.1572C15.6319 18.7923 15.6447 19.8616 16.3237 20.4708C16.9195 21.0087 17.8228 20.9958 18.4058 20.4514L23.0119 16.1482C23.6333 15.5649 24.607 15.6038 25.1836 16.2389C25.7602 16.874 25.7217 17.8526 25.0939 18.4359L25.0427 18.4877L29.8089 23.3094C30.4495 23.9574 30.8659 24.7545 31.0517 25.5841H35.85ZM5.1 26.6275C5.1 26.3525 4.99201 26.0887 4.79978 25.8943C4.60756 25.6998 4.34685 25.5906 4.075 25.5906C3.80315 25.5906 3.54244 25.6998 3.35022 25.8943C3.15799 26.0887 3.05 26.3525 3.05 26.6275C3.05 26.9025 3.15799 27.1662 3.35022 27.3607C3.54244 27.5551 3.80315 27.6644 4.075 27.6644C4.34685 27.6644 4.60756 27.5551 4.79978 27.3607C4.99201 27.1662 5.1 26.9025 5.1 26.6275ZM38.925 27.6644C39.1968 27.6644 39.4576 27.5551 39.6498 27.3607C39.842 27.1662 39.95 26.9025 39.95 26.6275C39.95 26.3525 39.842 26.0887 39.6498 25.8943C39.4576 25.6998 39.1968 25.5906 38.925 25.5906C38.6532 25.5906 38.3924 25.6998 38.2002 25.8943C38.008 26.0887 37.9 26.3525 37.9 26.6275C37.9 26.9025 38.008 27.1662 38.2002 27.3607C38.3924 27.5551 38.6532 27.6644 38.925 27.6644Z" fill="#DD0003"/>
<path d="M18.4378 9.03888L15.1642 12.3505C14.1841 12.6227 13.2744 13.1217 12.5056 13.8087L10.8016 15.3446C10.1481 15.9343 9.29609 16.2584 8.41844 16.2584H7.15V24.5536C8.45687 24.5925 9.69969 25.1304 10.6286 26.0701L12.9092 28.3773L13.3577 28.8309L15.0873 30.5807C15.4845 30.9825 16.138 30.9825 16.5352 30.5807C16.6441 30.4705 16.7273 30.3409 16.7722 30.2048C16.9516 29.7058 17.368 29.3299 17.8805 29.2133C18.393 29.0966 18.9311 29.2521 19.3027 29.6345L19.9945 30.3215C20.7377 31.0732 21.942 31.0732 22.6787 30.3215C23.0247 29.9715 23.2105 29.5243 23.2297 29.0642C23.2553 28.4939 23.5884 27.9884 24.1009 27.7421C24.6134 27.4959 25.2092 27.5477 25.6641 27.8782C26.2663 28.3124 27.1055 28.2541 27.6436 27.7097C28.2458 27.1006 28.2458 26.1155 27.6436 25.5128L22.7877 20.6004L20.4942 22.7391C18.7453 24.3722 16.0611 24.3981 14.2802 22.7974C12.2494 20.9698 12.2045 17.7813 14.1777 15.8955L18.6684 11.6052C20.4237 9.93322 22.7428 9 25.158 9C27.4706 9 29.7064 9.86193 31.4297 11.4108L33.358 13.1476H40.975C41.5387 13.1476 42 13.6142 42 14.1845V27.6644C42 28.8115 41.0839 29.7382 39.95 29.7382H37.9C37.1441 29.7382 36.4778 29.3234 36.1255 28.7013H30.6866C30.4688 29.1355 30.1805 29.5503 29.8217 29.9132C28.7262 31.0214 27.208 31.4556 25.7858 31.2158C25.5552 31.6889 25.2412 32.1296 24.8505 32.5249C23.1016 34.2941 20.3661 34.4691 18.4186 33.0498C16.8106 34.3978 14.4147 34.3136 12.9092 32.7841L11.1859 31.0343L10.7375 30.5807L8.45687 28.2736C8.10453 27.9171 7.64328 27.7097 7.15 27.6709C7.15 28.8115 6.2275 29.7382 5.1 29.7382H3.05C1.91609 29.7382 1 28.8115 1 27.6644V14.1845C1 13.6142 1.46125 13.1476 2.025 13.1476H8.41844C8.54656 13.1476 8.66828 13.1023 8.75797 13.018L10.4556 11.4886C12.243 9.88785 14.5428 9 16.9323 9H17.5922C17.8741 9 18.1623 9.01296 18.4378 9.03888ZM35.85 25.5841V16.2584H32.775C32.397 16.2584 32.0319 16.1158 31.7564 15.863L29.3925 13.7374C28.2266 12.6875 26.7211 12.1107 25.158 12.1107C23.5308 12.1107 21.9677 12.7394 20.7825 13.867L16.2917 18.1572C15.6319 18.7923 15.6447 19.8616 16.3237 20.4708C16.9195 21.0087 17.8228 20.9958 18.4058 20.4514L23.0119 16.1482C23.6333 15.5649 24.607 15.6038 25.1836 16.2389C25.7602 16.874 25.7217 17.8526 25.0939 18.4359L25.0427 18.4877L29.8089 23.3094C30.4495 23.9574 30.8659 24.7545 31.0517 25.5841H35.85ZM5.1 26.6275C5.1 26.3525 4.99201 26.0887 4.79978 25.8943C4.60756 25.6998 4.34685 25.5906 4.075 25.5906C3.80315 25.5906 3.54244 25.6998 3.35022 25.8943C3.15799 26.0887 3.05 26.3525 3.05 26.6275C3.05 26.9025 3.15799 27.1662 3.35022 27.3607C3.54244 27.5551 3.80315 27.6644 4.075 27.6644C4.34685 27.6644 4.60756 27.5551 4.79978 27.3607C4.99201 27.1662 5.1 26.9025 5.1 26.6275ZM38.925 27.6644C39.1968 27.6644 39.4576 27.5551 39.6498 27.3607C39.842 27.1662 39.95 26.9025 39.95 26.6275C39.95 26.3525 39.842 26.0887 39.6498 25.8943C39.4576 25.6998 39.1968 25.5906 38.925 25.5906C38.6532 25.5906 38.3924 25.6998 38.2002 25.8943C38.008 26.0887 37.9 26.3525 37.9 26.6275C37.9 26.9025 38.008 27.1662 38.2002 27.3607C38.3924 27.5551 38.6532 27.6644 38.925 27.6644Z" stroke="#DD0003"/>
<circle cx="4.5" cy="26.5" r="1.5" fill="#034CA1"/>
<circle cx="38.5" cy="26.5" r="1.5" fill="#034CA1"/>
</svg>
