<svg width="44" height="44" viewBox="0 0 44 44" fill="none" xmlns="http://www.w3.org/2000/svg">
<rect width="44" height="44" fill="white"/>
<path d="M43.24 20.9071C43.2415 19.1587 42.8212 17.437 42.0165 15.895C41.2118 14.3529 40.0477 13.0382 38.6274 12.0677C37.2071 11.0972 35.5747 10.5008 33.8752 10.3317C32.1757 10.1625 30.4617 10.4257 28.8855 11.098C27.3092 11.7702 25.9196 12.8307 24.8399 14.1851C23.7602 15.5396 23.0239 17.1461 22.6964 18.8621C22.369 20.578 22.4605 22.3501 22.9628 24.0211C23.4652 25.6921 24.3628 27.2102 25.576 28.4405V39.7801C25.5759 39.9811 25.6261 40.1788 25.7216 40.3544C25.8171 40.5301 25.9549 40.6778 26.1219 40.7835C26.2889 40.8893 26.4795 40.9496 26.6756 40.9588C26.8717 40.9679 27.0669 40.9256 27.2426 40.8358L32.872 37.9537L38.5014 40.8358C38.6613 40.9174 38.8374 40.9598 39.016 40.9596C39.2298 40.96 39.4394 40.8987 39.6208 40.7827C39.7879 40.6772 39.9259 40.5297 40.0216 40.3542C40.1174 40.1787 40.1678 39.9811 40.168 39.7801V28.4405C41.1417 27.4557 41.9147 26.2826 42.442 24.9893C42.9694 23.6961 43.2406 22.3085 43.24 20.9071ZM24.808 20.9071C24.808 19.274 25.2809 17.6776 26.167 16.3198C27.0531 14.9619 28.3125 13.9036 29.786 13.2787C31.2595 12.6537 32.8809 12.4902 34.4452 12.8088C36.0095 13.1274 37.4463 13.9138 38.5741 15.0685C39.7019 16.2233 40.4699 17.6945 40.7811 19.2962C41.0922 20.8979 40.9325 22.5581 40.3222 24.0669C39.7118 25.5756 38.6782 26.8652 37.3521 27.7725C36.026 28.6798 34.4669 29.164 32.872 29.164C30.7333 29.164 28.6822 28.2941 27.1699 26.7456C25.6576 25.1971 24.808 23.0969 24.808 20.9071ZM37.864 37.8712L33.3866 35.5789C33.2268 35.4972 33.0506 35.4547 32.872 35.4547C32.6934 35.4547 32.5172 35.4972 32.3574 35.5789L27.88 37.8712V30.204C29.4089 31.0667 31.1263 31.5192 32.872 31.5192C34.6177 31.5192 36.3351 31.0667 37.864 30.204V37.8712ZM21.736 33.4891C21.736 33.8019 21.6146 34.1019 21.3986 34.3232C21.1825 34.5444 20.8895 34.6686 20.584 34.6686H3.688C2.9751 34.6686 2.29139 34.3787 1.7873 33.8625C1.2832 33.3463 1 32.6463 1 31.9163V6.75231C1 6.02235 1.2832 5.32229 1.7873 4.80613C2.29139 4.28998 2.9751 4 3.688 4H37.48C38.1929 4 38.8766 4.28998 39.3807 4.80613C39.8848 5.32229 40.168 6.02235 40.168 6.75231C40.168 7.06515 40.0466 7.36518 39.8306 7.58639C39.6145 7.8076 39.3215 7.93188 39.016 7.93188C38.7105 7.93188 38.4175 7.8076 38.2014 7.58639C37.9854 7.36518 37.864 7.06515 37.864 6.75231C37.864 6.64803 37.8235 6.54802 37.7515 6.47429C37.6795 6.40055 37.5818 6.35913 37.48 6.35913H3.688C3.58616 6.35913 3.48848 6.40055 3.41647 6.47429C3.34446 6.54802 3.304 6.64803 3.304 6.75231V31.9163C3.304 32.0206 3.34446 32.1206 3.41647 32.1944C3.48848 32.2681 3.58616 32.3095 3.688 32.3095H20.584C20.8895 32.3095 21.1825 32.4338 21.3986 32.655C21.6146 32.8762 21.736 33.1762 21.736 33.4891ZM18.664 22.4798C18.664 22.7927 18.5426 23.0927 18.3266 23.3139C18.1105 23.5351 17.8175 23.6594 17.512 23.6594H9.832C9.52647 23.6594 9.23346 23.5351 9.01741 23.3139C8.80137 23.0927 8.68 22.7927 8.68 22.4798C8.68 22.167 8.80137 21.867 9.01741 21.6457C9.23346 21.4245 9.52647 21.3003 9.832 21.3003H17.512C17.8175 21.3003 18.1105 21.4245 18.3266 21.6457C18.5426 21.867 18.664 22.167 18.664 22.4798ZM18.664 16.1888C18.664 16.5017 18.5426 16.8017 18.3266 17.0229C18.1105 17.2441 17.8175 17.3684 17.512 17.3684H9.832C9.52647 17.3684 9.23346 17.2441 9.01741 17.0229C8.80137 16.8017 8.68 16.5017 8.68 16.1888C8.68 15.876 8.80137 15.576 9.01741 15.3547C9.23346 15.1335 9.52647 15.0093 9.832 15.0093H17.512C17.8175 15.0093 18.1105 15.1335 18.3266 15.3547C18.5426 15.576 18.664 15.876 18.664 16.1888Z" fill="#DD0003"/>
<path d="M31.7583 15.3068C31.944 15.1213 32.1924 15.0122 32.4546 15.001C32.7168 14.9897 32.9737 15.0771 33.1746 15.2459L33.2417 15.3073L34.2383 16.3034H35.6473C35.9118 16.3035 36.1666 16.4035 36.3606 16.5835C36.5545 16.7634 36.6734 17.01 36.6932 17.2739L36.6963 17.3526V18.7615L37.693 19.7582C37.8786 19.9439 37.9878 20.1924 37.999 20.4547C38.0103 20.717 37.9228 20.974 37.7538 21.175L37.6924 21.2416L36.6958 22.2383V23.6472C36.6959 23.9119 36.5959 24.1668 36.416 24.3609C36.236 24.555 35.9893 24.6738 35.7254 24.6937L35.6473 24.6963H34.2389L33.2422 25.693C33.0565 25.8786 32.808 25.9878 32.5457 25.999C32.2834 26.0103 32.0264 25.9228 31.8254 25.7538L31.7588 25.693L30.7622 24.6963H29.3527C29.0881 24.6964 28.8331 24.5964 28.6391 24.4165C28.445 24.2365 28.3261 23.9898 28.3063 23.7259L28.3037 23.6472V22.2383L27.307 21.2416C27.1214 21.0559 27.0122 20.8073 27.001 20.545C26.9897 20.2827 27.0772 20.0257 27.2462 19.8248L27.307 19.7582L28.3037 18.7615V17.3526C28.3037 17.088 28.4037 16.8332 28.5837 16.6392C28.7636 16.4452 29.0102 16.3264 29.2741 16.3066L29.3527 16.3034H30.7617L31.7583 15.3068ZM32.5 16.0496L31.5034 17.0462C31.3291 17.2202 31.0993 17.3273 30.854 17.3489L30.7617 17.3526H29.3527V18.7615C29.3528 19.008 29.2661 19.2466 29.1078 19.4356L29.0454 19.5038L28.0487 20.5004L29.0454 21.4965C29.2195 21.6707 29.3268 21.9006 29.3485 22.1459L29.3527 22.2383V23.6472H30.7617C31.0081 23.6471 31.2468 23.7339 31.4357 23.8922L31.5039 23.9546L32.5 24.9512L33.4966 23.9546C33.6708 23.7804 33.9007 23.6731 34.146 23.6514L34.2383 23.6472H35.6473V22.2383C35.6472 21.9918 35.7339 21.7531 35.8922 21.5642L35.9546 21.496L36.9513 20.4999L35.9546 19.5032C35.7805 19.3291 35.6732 19.0992 35.6515 18.8538L35.6473 18.7615V17.3526H34.2383C33.9919 17.3526 33.7532 17.2659 33.5643 17.1076L33.4961 17.0452L32.4995 16.0485L32.5 16.0496ZM34.1156 18.9178C34.21 18.8237 34.3367 18.7691 34.4699 18.7651C34.6031 18.761 34.7328 18.8078 34.8328 18.8959C34.9327 18.9841 34.9954 19.107 35.008 19.2396C35.0207 19.3723 34.9824 19.5048 34.9008 19.6102L34.8568 19.6595L32.297 22.2194C32.1971 22.3194 32.0639 22.3793 31.9227 22.3876C31.7815 22.396 31.6422 22.3521 31.5312 22.2645L31.4808 22.2199L30.2198 20.9589C30.1247 20.8647 30.0693 20.7377 30.0647 20.604C30.0602 20.4702 30.1069 20.3398 30.1954 20.2394C30.2839 20.139 30.4074 20.0762 30.5406 20.0639C30.6739 20.0515 30.8068 20.0906 30.9122 20.1731L30.9615 20.2166L31.8889 21.144L34.1156 18.9178Z" fill="#034CA1"/>
</svg>
